# Blender v2.78 (sub 0) OBJ File: 'Paz.blend'
# www.blender.org
mtllib Left Boot.mtl
o PAZ.007
v -0.979687 0.230370 0.373629
v -0.980921 0.284998 0.376887
v -1.099153 0.226858 0.282056
v -0.990926 0.547058 0.334546
v -1.076188 0.524527 0.248430
v -0.989583 0.639458 0.295280
v -1.117126 0.852812 0.098266
v -1.032200 0.861454 0.244439
v -0.907236 0.879591 0.256160
v -0.829811 0.645182 0.297408
v -0.801039 0.899378 0.117232
v -0.751613 0.548815 0.238149
v -0.708463 0.715598 -0.028703
v -0.731466 0.515480 0.038785
v -0.725917 0.494213 -0.173540
v -0.708207 0.219009 0.069180
v -0.732176 0.207389 -0.088369
v -0.733142 0.066578 -0.059483
v -1.134671 0.868525 -0.217470
v -1.063826 0.902859 -0.341160
v -1.142104 0.706155 -0.145045
v -1.112349 0.529409 -0.356060
v -1.168066 0.405552 -0.251144
v -0.770660 0.822008 -0.198287
v -0.840451 0.931374 -0.311489
v -0.765442 0.654303 -0.200873
v -0.937644 0.922020 -0.356765
v -0.881184 0.522405 -0.477940
v -0.742211 0.470313 -0.317642
v -1.026969 0.524719 -0.468137
v -1.155173 0.195102 -0.052134
v -1.138463 0.205604 0.092779
v -1.172600 0.469543 -0.008189
v -1.147050 0.496981 0.081692
v -1.160918 0.848390 -0.073203
v -1.166089 0.456222 -0.107744
v -1.202101 0.298373 -0.208722
v -0.818264 0.559874 0.335349
v -0.801950 0.290849 0.371097
v -0.801178 0.235746 0.361111
v -0.975725 0.087895 0.375694
v -1.094989 0.077479 0.284351
v -1.133154 0.064518 0.114466
v -0.717804 0.075662 0.065436
v -0.712297 0.088103 0.244372
v -0.702526 0.231442 0.247915
v -0.741711 0.288754 -0.286113
v -0.804674 0.092133 0.350368
v -0.771370 0.438951 -0.460210
v -1.197773 0.219089 -0.177456
v -1.155952 0.054295 -0.023261
v -0.999649 0.297920 -1.015662
v -0.995112 0.212089 -1.077345
v -1.071118 0.283066 -0.996654
v -1.078970 0.204685 -1.044380
v -1.153897 0.255838 -0.955919
v -1.141621 0.192372 -0.992755
v -1.189770 0.237625 -0.905751
v -1.183834 0.167263 -0.941722
v -1.211993 0.157364 -0.872423
v -1.194745 0.015289 -0.871290
v -1.238411 0.142161 -0.783110
v -1.221110 0.007243 -0.775829
v -1.241596 0.012538 -0.688018
v -1.227834 0.223706 -0.788946
v -1.197120 0.256833 -0.719763
v -1.234618 0.216003 -0.701255
v -1.247631 0.215527 -0.600391
v -1.258220 0.134517 -0.687933
v -1.264710 0.141134 -0.587960
v -1.254636 0.018957 -0.587585
v -0.794461 0.059318 -1.028088
v -0.904419 0.065971 -1.074370
v -0.799294 0.214919 -1.037517
v -0.895291 0.215558 -1.077585
v -0.892630 0.295145 -1.009591
v -0.979511 0.312150 -0.818038
v -1.133928 0.290831 -0.752796
v -0.767981 0.127325 -0.247606
v -0.687550 0.041034 -0.554308
v -0.707444 0.229174 -0.578139
v -0.778757 0.375619 -0.589058
v -0.947022 0.402456 -0.605849
v -1.240305 0.054694 -0.370735
v -1.250406 0.162819 -0.376827
v -1.240760 0.250127 -0.396350
v -1.165698 0.359903 -0.421745
v -0.708392 0.214717 -0.690503
v -0.682418 0.033014 -0.674090
v -0.716753 0.212996 -0.809759
v -0.691033 0.024117 -0.799668
v -0.739973 0.216363 -0.948310
v -0.726200 0.035190 -0.917898
v -1.172564 0.324960 -0.532420
v -1.102395 0.366324 -0.559791
v -0.793843 0.304140 -0.830204
v -1.261127 0.025574 -0.487612
v -1.271209 0.154467 -0.488218
v -1.254598 0.228576 -0.507389
v -0.804085 0.272626 -0.987442
v -1.137001 0.043661 -0.983744
v -1.166137 0.025651 -0.934048
v -1.074345 0.055783 -1.035358
v -0.990701 0.070078 -1.068740
v -1.181244 0.139274 -0.160189
v -0.957402 0.028678 -0.895113
v -0.901067 0.073533 -0.268529
v -0.772565 0.072201 0.042801
v -0.852048 0.082982 0.240839
v -0.943761 0.081133 0.260602
v -0.976577 1.005002 -0.078228
vt 0.0183 0.0953
vt 0.0183 0.0990
vt 0.0337 0.0953
vt 0.0183 0.1244
vt 0.0323 0.1232
vt 0.0183 0.1301
vt 0.0380 0.1429
vt 0.0183 0.1418
vt 0.2316 0.1429
vt 0.2455 0.1424
vt 0.2298 0.1308
vt 0.2096 0.1428
vt 0.2143 0.1249
vt 0.1888 0.1353
vt 0.1964 0.1230
vt 0.1784 0.1143
vt 0.1994 0.0898
vt 0.1787 0.0900
vt 0.1833 0.0821
vt 0.0934 0.1494
vt 0.1099 0.1365
vt 0.0917 0.1326
vt 0.1082 0.0881
vt 0.0930 0.0880
vt 0.1421 0.1340
vt 0.1581 0.1422
vt 0.1564 0.1207
vt 0.1258 0.1320
vt 0.1417 0.0821
vt 0.1563 0.0931
vt 0.1259 0.0825
vt 0.0705 0.0953
vt 0.0520 0.0953
vt 0.0679 0.1216
vt 0.0534 0.1232
vt 0.0673 0.1448
vt 0.0796 0.1194
vt 0.0819 0.0875
vt 0.2455 0.1307
vt 0.2455 0.1250
vt 0.2301 0.1256
vt 0.2455 0.0937
vt 0.2301 0.0937
vt 0.2455 0.0900
vt 0.2298 0.0900
vt 0.0183 0.0875
vt 0.0335 0.0875
vt 0.0493 0.0875
vt 0.1994 0.0820
vt 0.2155 0.0821
vt 0.2155 0.0900
vt 0.1681 0.0884
vt 0.2455 0.0821
vt 0.2300 0.0821
vt 0.1566 0.0823
vt 0.0723 0.0876
vt 0.0706 0.0875
vt 0.1364 0.0498
vt 0.1370 0.0312
vt 0.1253 0.0506
vt 0.1255 0.0312
vt 0.1152 0.0494
vt 0.1154 0.0312
vt 0.1001 0.0484
vt 0.1047 0.0312
vt 0.0978 0.0312
vt 0.0948 0.0198
vt 0.0873 0.0312
vt 0.0841 0.0198
vt 0.0753 0.0198
vt 0.0863 0.0489
vt 0.0935 0.0544
vt 0.0762 0.0489
vt 0.0680 0.0494
vt 0.0774 0.0312
vt 0.0679 0.0312
vt 0.0660 0.0198
vt 0.1741 0.0198
vt 0.1564 0.0198
vt 0.1729 0.0312
vt 0.1564 0.0312
vt 0.1547 0.0505
vt 0.1500 0.0582
vt 0.1149 0.0579
vt 0.2367 0.0198
vt 0.2165 0.0198
vt 0.2318 0.0403
vt 0.2128 0.0403
vt 0.2079 0.0626
vt 0.1983 0.0567
vt 0.1759 0.0795
vt 0.1519 0.0643
vt 0.1506 0.0793
vt 0.0437 0.0199
vt 0.0258 0.0312
vt 0.0435 0.0312
vt 0.0306 0.0474
vt 0.0453 0.0474
vt 0.0774 0.0799
vt 0.0839 0.0693
vt 0.1158 0.0795
vt 0.2056 0.0403
vt 0.2088 0.0198
vt 0.1977 0.0403
vt 0.1999 0.0198
vt 0.1854 0.0381
vt 0.1856 0.0198
vt 0.0880 0.0624
vt 0.1153 0.0643
vt 0.1854 0.0523
vt 0.0573 0.0198
vt 0.0586 0.0312
vt 0.0589 0.0498
vt 0.1767 0.0458
vt 0.1142 0.0198
vt 0.1044 0.0198
vt 0.1276 0.0198
vt 0.1375 0.0198
vt 0.0263 0.0198
vt 0.0163 0.0198
vt 0.2482 0.0198
vt 0.0192 0.0799
vt 0.0222 0.0823
vt 0.0219 0.0736
vt 0.0252 0.0835
vt 0.0239 0.0636
vt 0.0261 0.0628
vt 0.0181 0.0694
vt 0.0175 0.0726
vt 0.0191 0.0670
vt 0.0216 0.0647
vt 0.0202 0.0659
vt 0.0177 0.0759
vt 0.0284 0.0837
vt 0.0285 0.0622
vt 0.0309 0.0619
vt 0.0313 0.0834
vt 0.0339 0.0625
vt 0.0377 0.0752
vt 0.0394 0.0646
vt 0.0423 0.0656
vt 0.0435 0.0812
vt 0.0466 0.0817
vt 0.0459 0.0796
vt 0.0511 0.0817
vt 0.0505 0.0765
vt 0.0534 0.0782
vt 0.0507 0.0730
vt 0.0429 0.0654
vt 0.0429 0.0815
vt 0.0388 0.0802
vt 0.0534 0.0717
vt 0.0507 0.0674
vt 0.0464 0.0661
vt 0.2316 0.1429
vt 0.0673 0.1448
vt 0.1421 0.1340
vt 0.1258 0.1320
vt 0.1581 0.1422
vt 0.0380 0.1429
vt 0.1099 0.1365
vt 0.2455 0.1424
vt 0.0934 0.1494
vt 0.2096 0.1428
vn -0.2930 -0.0517 0.9547
vn -0.2585 0.0574 0.9643
vn -0.8478 0.0298 0.5295
vn -0.3908 0.2637 0.8819
vn -0.8088 0.1669 0.5639
vn -0.5114 0.2377 0.8258
vn -0.7997 0.4873 0.3506
vn -0.4667 0.4580 0.7566
vn 0.2039 0.6211 0.7567
vn 0.3387 0.3419 0.8766
vn 0.6563 0.7101 0.2550
vn 0.9362 0.1741 0.3053
vn 0.9908 0.1265 -0.0478
vn 0.9980 -0.0028 0.0635
vn 0.9931 0.0340 -0.1120
vn 0.9987 0.0025 -0.0505
vn 0.9892 -0.0830 -0.1209
vn 0.9899 -0.0502 -0.1323
vn -0.8852 0.3223 -0.3354
vn -0.5695 0.5283 -0.6298
vn -0.9726 0.0362 -0.2296
vn -0.8794 0.3064 -0.3644
vn -0.9591 0.2829 0.0123
vn 0.6373 0.5942 -0.4907
vn 0.8919 0.3274 -0.3121
vn 0.9091 0.1609 -0.3843
vn 0.0431 0.6530 -0.7561
vn 0.4703 0.5594 -0.6825
vn 0.9208 0.2841 -0.2674
vn -0.3669 0.4761 -0.7992
vn -0.9804 0.0301 0.1945
vn -0.9823 -0.0292 0.1852
vn -0.9989 -0.0012 0.0479
vn -0.9558 0.0464 0.2904
vn -0.8933 0.4492 0.0143
vn -0.9993 0.0217 -0.0318
vn -0.9361 0.2144 0.2788
vn -0.0077 0.2334 0.9723
vn 0.3713 -0.0186 0.9283
vn 0.4561 -0.0863 0.8857
vn -0.1391 -0.0237 0.9900
vn -0.7711 -0.0119 0.6366
vn -0.9845 -0.0026 0.1756
vn 0.9953 -0.0648 -0.0717
vn 0.9383 -0.0720 0.3383
vn 0.9061 0.0318 0.4218
vn 0.8105 0.2022 0.5497
vn 1.0000 0.0014 -0.0094
vn 0.4785 -0.0771 0.8747
vn 0.8653 0.4474 -0.2262
vn -0.9549 -0.0419 0.2940
vn -0.9863 0.0384 0.1604
vn -0.1035 0.8299 -0.5482
vn -0.2263 0.2161 -0.9498
vn -0.3546 0.8125 -0.4628
vn -0.5213 0.2408 -0.8187
vn -0.6426 0.5952 -0.4826
vn -0.7462 0.0494 -0.6639
vn -0.8132 0.4846 -0.3221
vn -0.8713 -0.0109 -0.4907
vn -0.9458 0.0245 -0.3238
vn -0.9287 -0.1261 -0.3487
vn -0.9680 -0.0510 -0.2456
vn -0.9596 -0.1363 -0.2460
vn -0.9808 -0.1214 -0.1524
vn -0.9156 0.3692 -0.1596
vn -0.6510 0.7486 -0.1254
vn -0.8764 0.4767 -0.0680
vn -0.8923 0.4372 -0.1129
vn -0.9877 0.0991 -0.1206
vn -0.9961 0.0341 -0.0811
vn -0.9924 -0.0821 -0.0913
vn 0.6484 -0.0260 -0.7609
vn 0.1793 -0.0438 -0.9828
vn 0.5995 0.2523 -0.7596
vn 0.1571 0.3831 -0.9103
vn 0.1912 0.8685 -0.4573
vn -0.0967 0.9806 -0.1706
vn -0.3941 0.9004 -0.1840
vn 0.9868 -0.1421 0.0776
vn 0.9897 0.0458 0.1360
vn 0.9683 0.2486 -0.0260
vn 0.6874 0.6554 -0.3128
vn -0.0877 0.8505 -0.5187
vn -0.9606 -0.0939 0.2614
vn -0.9782 0.0173 0.2071
vn -0.9404 0.3348 0.0605
vn -0.8135 0.5562 -0.1698
vn 0.9555 0.2893 -0.0582
vn 0.9911 0.1286 -0.0348
vn 0.9275 0.3529 -0.1235
vn 0.9802 0.0940 -0.1745
vn 0.8851 0.3404 -0.3173
vn 0.8886 -0.0033 -0.4587
vn -0.6956 0.6977 -0.1715
vn -0.5651 0.7309 -0.3826
vn 0.4256 0.8758 -0.2279
vn -0.9945 -0.0797 0.0678
vn -0.9945 0.0862 0.0590
vn -0.9057 0.4179 -0.0711
vn 0.5463 0.7256 -0.4183
vn -0.7503 -0.0632 -0.6581
vn -0.8323 -0.1077 -0.5438
vn -0.4992 -0.0678 -0.8638
vn -0.2163 -0.0657 -0.9741
vn -0.9434 -0.1293 0.3056
vn 0.0148 -0.9782 -0.2072
vn 0.0122 -0.9873 -0.1583
vn 0.0203 -0.9837 -0.1785
vn 0.0299 -0.9995 -0.0029
vn 0.0368 -0.9985 -0.0410
vn 0.0348 -0.9971 0.0682
vn 0.0440 -0.9734 -0.2248
vn 0.0037 -0.9726 -0.2326
vn 0.0259 -0.9757 -0.2174
vn 0.0407 -0.9878 -0.1502
vn 0.8013 -0.5298 0.2778
vn -0.0185 -0.9778 -0.2089
vn 0.0411 -0.9915 0.1234
vn 0.1048 -0.9758 0.1921
vn 0.0016 -0.9681 0.2506
vn 0.0882 -0.9112 0.4025
vn -0.0470 -0.9033 0.4265
vn 0.0782 -0.8497 0.5214
vn -0.0779 -0.1998 -0.9767
vn -0.0779 -0.1999 -0.9767
vn 0.0635 -0.8973 0.4369
vn 0.1926 -0.8563 0.4792
vn -0.0357 0.9992 -0.0195
usemtl PAZ
s 1
f 1/1/1 2/2/2 3/3/3
f 3/3/3 2/2/2 4/4/4
f 3/3/3 4/4/4 5/5/5
f 5/5/5 4/4/4 6/6/6
f 5/5/5 6/6/6 7/7/7
f 7/7/7 6/6/6 8/8/8
f 9/9/9 8/10/8 10/11/10
f 9/9/9 10/11/10 11/12/11
f 11/12/11 10/11/10 12/13/12
f 11/12/11 12/13/12 13/14/13
f 13/14/13 12/13/12 14/15/14
f 13/14/13 14/15/14 15/16/15
f 15/16/15 14/15/14 16/17/16
f 15/16/15 16/17/16 17/18/17
f 17/18/17 16/17/16 18/19/18
f 19/20/19 20/21/20 21/22/21
f 21/22/21 20/21/20 22/23/22
f 21/22/21 22/23/22 23/24/23
f 25/25/24 24/26/25 26/27/26
f 26/27/26 24/26/25 13/14/13
f 26/27/26 13/14/13 15/16/15
f 27/28/27 25/25/24 28/29/28
f 28/29/28 25/25/24 26/27/26
f 28/29/28 26/27/26 29/30/29
f 20/21/20 27/28/27 30/31/30
f 30/31/30 27/28/27 28/29/28
f 31/32/31 32/33/32 33/34/33
f 33/34/33 32/33/32 34/35/34
f 33/34/33 34/35/34 35/36/35
f 35/36/35 34/35/34 7/7/7
f 35/36/35 19/20/19 21/22/21
f 35/36/35 21/22/21 33/34/33
f 33/34/33 21/22/21 36/37/36
f 33/34/33 36/37/36 31/32/31
f 31/32/31 36/37/36 23/24/23
f 31/32/31 23/24/23 37/38/37
f 10/11/10 6/39/6 4/40/4
f 10/11/10 4/40/4 38/41/38
f 38/41/38 4/40/4 2/42/2
f 38/41/38 2/42/2 39/43/39
f 39/43/39 2/42/2 1/44/1
f 39/43/39 1/44/1 40/45/40
f 41/46/41 1/1/1 42/47/42
f 42/47/42 1/1/1 3/3/3
f 42/47/42 3/3/3 43/48/43
f 43/48/43 3/3/3 32/33/32
f 43/48/43 32/33/32 31/32/31
f 44/49/44 18/19/18 16/17/16
f 44/49/44 16/17/16 45/50/45
f 45/50/45 16/17/16 46/51/46
f 45/50/45 46/51/46 40/45/40
f 40/45/40 46/51/46 39/43/39
f 16/17/16 14/15/14 12/13/12
f 16/17/16 12/13/12 46/51/46
f 46/51/46 12/13/12 38/41/47
f 46/51/46 38/41/47 39/43/39
f 32/33/32 3/3/3 34/35/34
f 34/35/34 3/3/3 5/5/5
f 34/35/34 5/5/5 7/7/7
f 29/30/29 26/27/26 15/16/15
f 29/30/29 15/16/15 47/52/48
f 47/52/48 15/16/15 17/18/17
f 1/44/1 41/53/41 40/45/40
f 40/45/40 41/53/41 48/54/49
f 40/45/40 48/54/49 45/50/45
f 47/52/48 49/55/50 29/30/29
f 29/30/29 49/55/50 28/29/28
f 37/38/37 50/56/51 31/32/31
f 10/11/10 8/10/8 6/39/6
f 36/37/36 21/22/21 23/24/23
f 24/26/25 11/12/11 13/14/13
f 22/23/22 20/21/20 30/31/30
f 38/41/47 12/13/12 10/11/10
f 31/32/31 51/57/52 43/48/43
f 52/58/53 53/59/54 54/60/55
f 54/60/55 53/59/54 55/61/56
f 54/60/55 55/61/56 56/62/57
f 56/62/57 55/61/56 57/63/58
f 56/62/57 57/63/58 58/64/59
f 58/64/59 57/63/58 59/65/60
f 58/64/59 59/65/60 60/66/61
f 60/66/61 59/65/60 61/67/62
f 60/66/61 61/67/62 62/68/63
f 62/68/63 61/67/62 63/69/64
f 62/68/63 63/69/64 64/70/65
f 58/64/59 60/66/61 65/71/66
f 58/64/59 65/71/66 66/72/67
f 66/72/67 65/71/66 67/73/68
f 66/72/67 67/73/68 68/74/69
f 68/74/69 67/73/68 69/75/70
f 68/74/69 69/75/70 70/76/71
f 70/76/71 69/75/70 64/70/65
f 70/76/71 64/70/65 71/77/72
f 72/78/73 73/79/74 74/80/75
f 74/80/75 73/79/74 75/81/76
f 74/80/75 75/81/76 76/82/77
f 76/82/77 75/81/76 52/58/53
f 76/82/77 52/58/53 77/83/78
f 77/83/78 52/58/53 54/60/55
f 77/83/78 54/60/55 78/84/79
f 79/85/80 80/86/81 47/87/48
f 47/87/48 80/86/81 81/88/82
f 47/87/48 81/88/82 49/89/50
f 49/89/50 81/88/82 82/90/83
f 49/89/50 82/90/83 28/91/28
f 28/91/28 82/90/83 83/92/84
f 28/91/28 83/92/84 30/93/30
f 84/94/85 50/95/51 85/96/86
f 85/96/86 50/95/51 37/97/37
f 85/96/86 37/97/37 86/98/87
f 86/98/87 37/97/37 23/99/23
f 86/98/87 23/99/23 87/100/88
f 87/100/88 23/99/23 22/101/22
f 88/102/89 89/103/90 90/104/91
f 90/104/91 89/103/90 91/105/92
f 90/104/91 91/105/92 92/106/93
f 92/106/93 91/105/92 93/107/94
f 92/106/93 93/107/94 74/80/75
f 74/80/75 93/107/94 72/78/73
f 66/72/67 94/108/95 95/109/96
f 66/72/67 95/109/96 78/84/79
f 78/84/79 95/109/96 83/92/84
f 78/84/79 83/92/84 77/83/78
f 77/83/78 83/92/84 96/110/97
f 84/94/85 85/96/86 97/111/98
f 97/111/98 85/96/86 98/112/99
f 97/111/98 98/112/99 70/76/71
f 70/76/71 98/112/99 99/113/100
f 70/76/71 99/113/100 68/74/69
f 68/74/69 99/113/100 94/108/95
f 94/108/95 99/113/100 87/100/88
f 94/108/95 87/100/88 95/109/96
f 95/109/96 87/100/88 22/101/22
f 95/109/96 22/101/22 30/93/30
f 77/83/78 96/110/97 76/82/77
f 76/82/77 96/110/97 100/114/101
f 76/82/77 100/114/101 74/80/75
f 74/80/75 100/114/101 92/106/93
f 90/104/91 82/90/83 88/102/89
f 88/102/89 82/90/83 81/88/82
f 88/102/89 81/88/82 89/103/90
f 89/103/90 81/88/82 80/86/81
f 101/115/102 102/116/103 57/63/58
f 101/115/102 57/63/58 103/117/104
f 103/117/104 57/63/58 55/61/56
f 103/117/104 55/61/56 53/59/54
f 73/79/74 104/118/105 53/59/54
f 73/79/74 53/59/54 75/81/76
f 75/81/76 53/59/54 52/58/53
f 69/75/70 67/73/68 65/71/66
f 69/75/70 65/71/66 62/68/63
f 62/68/63 65/71/66 60/66/61
f 54/60/55 56/62/57 78/84/79
f 78/84/79 56/62/57 58/64/59
f 78/84/79 58/64/59 66/72/67
f 83/92/84 82/90/83 96/110/97
f 96/110/97 82/90/83 90/104/91
f 96/110/97 90/104/91 92/106/93
f 61/67/62 59/65/60 102/116/103
f 102/116/103 59/65/60 57/63/58
f 85/96/86 86/98/87 98/112/99
f 98/112/99 86/98/87 99/113/100
f 84/94/85 105/119/106 50/95/51
f 50/95/51 105/119/106 31/120/31
f 103/117/104 53/59/54 104/118/105
f 62/68/63 64/70/65 69/75/70
f 86/98/87 87/100/88 99/113/100
f 47/87/48 17/121/17 79/85/80
f 71/77/72 97/111/98 70/76/71
f 66/72/67 68/74/69 94/108/95
f 83/92/84 95/109/96 30/93/30
f 72/122/107 93/123/108 106/124/109
f 106/124/109 93/123/108 91/125/110
f 106/124/109 91/125/110 63/126/111
f 63/126/111 91/125/110 64/127/112
f 103/128/113 104/129/114 106/124/109
f 103/128/113 106/124/109 101/130/115
f 101/130/115 106/124/109 61/131/116
f 101/130/117 61/131/117 102/132/117
f 72/122/107 106/124/109 73/133/118
f 73/133/118 106/124/109 104/129/114
f 89/134/112 71/135/112 91/125/110
f 91/125/110 71/135/112 64/127/112
f 106/124/109 63/126/111 61/131/116
f 71/135/112 89/134/112 97/136/119
f 97/136/119 89/134/112 80/137/120
f 97/136/119 80/137/120 84/138/121
f 84/138/121 80/137/120 107/139/122
f 84/138/121 107/139/122 105/140/123
f 105/140/123 107/139/122 31/141/124
f 18/142/112 44/143/112 108/144/112
f 108/144/112 44/143/112 45/145/112
f 108/144/112 45/145/112 109/146/112
f 109/146/112 45/145/112 48/147/112
f 109/146/112 48/147/112 110/148/112
f 18/142/125 51/149/125 17/150/125
f 17/150/125 51/149/125 31/141/126
f 17/150/127 31/141/124 79/151/128
f 79/151/128 31/141/124 107/139/122
f 79/151/128 107/139/122 80/137/120
f 41/152/112 42/153/112 110/148/112
f 110/148/112 42/153/112 43/154/112
f 110/148/112 43/154/112 108/144/112
f 108/144/112 43/154/112 18/142/112
f 110/148/112 48/147/112 41/152/112
f 18/142/112 43/154/112 51/149/112
f 110/148/112 108/144/112 109/146/112
f 92/106/93 100/114/101 96/110/97
f 9/9/9 11/12/11 111/155/129
f 35/36/35 7/7/7 111/156/129
f 25/25/24 27/28/27 111/157/129
f 27/28/27 20/21/20 111/158/129
f 24/26/25 25/25/24 111/159/129
f 7/7/7 8/8/8 111/160/129
f 20/21/20 19/20/19 111/161/129
f 8/10/8 9/9/9 111/162/129
f 19/20/19 35/36/35 111/163/129
f 11/12/11 24/26/25 111/164/129
