# Blender v2.78 (sub 0) OBJ File: 'Paz.blend'
# www.blender.org
mtllib Left Boot Leg.mtl
o PAZ.005
v -1.268565 2.486690 0.158972
v -1.260801 2.486412 0.153499
v -1.356795 2.475903 -0.048836
v -1.342219 2.475689 -0.053137
v -1.336604 2.465794 -0.244791
v -1.324502 2.466261 -0.235899
v -1.229758 2.456510 -0.425830
v -1.218641 2.457329 -0.410103
v -1.085325 2.452558 -0.504088
v -1.080986 2.453303 -0.489722
v -0.915648 2.451329 -0.529942
v -0.917965 2.452019 -0.516527
v -0.814333 2.454070 -0.478064
v -0.822097 2.454348 -0.472590
v -0.655720 2.462322 -0.320206
v -0.670138 2.462546 -0.315684
v -0.593215 2.472513 -0.123634
v -0.607790 2.472726 -0.119334
v -0.661384 2.484647 0.112119
v -0.673676 2.484178 0.103194
v -0.860085 2.494484 0.304975
v -0.864392 2.493730 0.290419
v -1.111974 2.493505 0.289048
v -1.109658 2.492814 0.275633
v -0.815424 2.372921 -0.467241
v -0.916740 2.370179 -0.519121
v -1.087558 2.371750 -0.486653
v -1.233165 2.376052 -0.401593
v -1.324451 2.384771 -0.231690
v -1.342169 2.394199 -0.048928
v -1.259576 2.404571 0.150906
v -1.108466 2.410984 0.273228
v -0.661150 2.380428 -0.323750
v -0.600928 2.391301 -0.113953
v -1.337695 2.384645 -0.233970
v -1.355602 2.394072 -0.051241
v -1.267372 2.404859 0.156568
v -1.110782 2.411675 0.286644
v -1.220873 2.376521 -0.392667
v -1.083251 2.372504 -0.472097
v -0.824362 2.373549 -0.454966
v -0.675725 2.380641 -0.319450
v -0.614362 2.391173 -0.116265
v -0.865483 2.412581 0.301241
v -0.869821 2.411835 0.286875
v -0.919056 2.370870 -0.505705
v -0.660192 2.402817 0.109715
v -0.673626 2.402688 0.107403
v -1.117126 0.852812 0.098266
v -1.032200 0.861454 0.244439
v -1.172010 0.980846 0.080798
v -1.072422 0.988185 0.221687
v -1.178763 1.190931 0.068805
v -1.088406 1.201025 0.263166
v -1.211225 1.638867 0.191890
v -1.103391 1.643802 0.286139
v -1.257401 2.107863 0.194276
v -1.110597 2.113520 0.302043
v -0.926396 0.989935 0.253828
v -0.907236 0.879591 0.256160
v -0.801039 0.899378 0.117232
v -1.325436 2.080255 -0.209142
v -1.224133 2.059074 -0.356190
v -1.273893 1.627407 -0.163247
v -1.189522 1.620753 -0.293093
v -1.144638 1.174563 -0.248496
v -1.040509 1.176938 -0.334038
v -1.134671 0.868525 -0.217470
v -1.063826 0.902859 -0.341160
v -0.879888 2.087614 0.322527
v -0.904821 1.637553 0.293038
v -0.714106 1.628002 0.105813
v -0.926823 1.208920 0.283825
v -0.771691 1.199734 0.104094
v -0.795296 0.990436 0.131681
v -0.703806 1.008937 -0.039785
v -0.770660 0.822008 -0.198287
v -0.614143 2.038756 -0.098064
v -0.676680 2.028574 -0.294446
v -0.825289 2.028377 -0.430507
v -0.927783 2.032694 -0.475931
v -1.086507 2.048346 -0.435273
v -0.841071 1.610774 -0.356499
v -0.691098 1.610816 -0.227216
v -0.827661 1.179315 -0.290588
v -0.755632 1.184622 -0.188689
v -0.840451 0.931374 -0.311489
v -0.937891 1.608788 -0.393790
v -0.916718 1.177051 -0.333352
v -0.937644 0.922020 -0.356765
v -1.067460 1.617302 -0.361387
v -1.160918 0.848390 -0.073203
v -1.213330 0.990828 -0.119983
v -0.716211 1.191388 -0.058158
v -0.641701 1.618742 -0.074345
v -0.677722 2.063130 0.110346
v -1.351960 2.094884 -0.055871
v -1.286875 1.633323 -0.048548
v -1.214622 1.181002 -0.122984
v -0.984547 1.637114 0.155224
v -0.976577 0.748435 -0.078228
vt 0.7656 0.2197
vt 0.7651 0.2239
vt 0.7877 0.2197
vt 0.7869 0.2239
vt 0.8054 0.2197
vt 0.8048 0.2239
vt 0.8251 0.2197
vt 0.8248 0.2239
vt 0.8405 0.2197
vt 0.8403 0.2239
vt 0.8566 0.2197
vt 0.8567 0.2239
vt 0.8670 0.2197
vt 0.8671 0.2239
vt 0.8878 0.2197
vt 0.8883 0.2239
vt 0.9076 0.2197
vt 0.9083 0.2239
vt 0.9306 0.2197
vt 0.9312 0.2239
vt 0.9577 0.2197
vt 0.9577 0.2239
vt 0.9762 0.2197
vt 0.9762 0.2239
vt 0.8673 0.1933
vt 0.8564 0.1933
vt 0.8397 0.1933
vt 0.8239 0.1933
vt 0.8050 0.2503
vt 0.7872 0.2503
vt 0.7653 0.2503
vt 0.7460 0.2503
vt 0.7460 0.2239
vt 0.8874 0.1933
vt 0.9082 0.1933
vt 0.8049 0.1933
vt 0.7872 0.1933
vt 0.7656 0.1933
vt 0.7460 0.1933
vt 0.7460 0.2197
vt 0.8240 0.2503
vt 0.8398 0.2503
vt 0.8670 0.2503
vt 0.8873 0.2503
vt 0.9082 0.2503
vt 0.9577 0.1933
vt 0.9762 0.1933
vt 0.9577 0.2503
vt 0.9762 0.2503
vt 0.8564 0.2503
vt 0.9308 0.1933
vt 0.9308 0.2503
vt 0.0380 0.1429
vt 0.0183 0.1418
vt 0.0445 0.1520
vt 0.0183 0.1677
vt 0.0500 0.1758
vt 0.0183 0.1822
vt 0.0362 0.2020
vt 0.0183 0.2020
vt 0.0364 0.2245
vt 0.0183 0.2245
vt 0.0379 0.2499
vt 0.0183 0.2499
vt 0.2297 0.1683
vt 0.2455 0.1683
vt 0.2455 0.1424
vt 0.2316 0.1429
vt 0.0767 0.2499
vt 0.0957 0.2492
vt 0.0762 0.2245
vt 0.0942 0.2238
vt 0.0761 0.1999
vt 0.0933 0.1963
vt 0.0958 0.1675
vt 0.1111 0.1644
vt 0.0934 0.1494
vt 0.1099 0.1365
vt 0.2455 0.2251
vt 0.2455 0.2026
vt 0.2249 0.2251
vt 0.2265 0.2026
vt 0.1974 0.2011
vt 0.2291 0.1828
vt 0.2023 0.1758
vt 0.2056 0.1586
vt 0.2096 0.1428
vt 0.1799 0.1491
vt 0.1581 0.1422
vt 0.1771 0.2505
vt 0.1760 0.2251
vt 0.1562 0.2505
vt 0.1553 0.2251
vt 0.1363 0.2505
vt 0.1354 0.2251
vt 0.1258 0.2502
vt 0.1258 0.2247
vt 0.1107 0.2499
vt 0.1097 0.2245
vt 0.1352 0.1945
vt 0.1566 0.1973
vt 0.1400 0.1644
vt 0.1551 0.1651
vt 0.1421 0.1340
vt 0.1257 0.1941
vt 0.1258 0.1641
vt 0.1258 0.1320
vt 0.1096 0.1939
vt 0.0673 0.1448
vt 0.0761 0.1536
vt 0.1751 0.1709
vt 0.1749 0.1995
vt 0.1989 0.2505
vt 0.1981 0.2251
vt 0.0612 0.2245
vt 0.0630 0.2020
vt 0.0774 0.1712
vt 0.2455 0.1828
vt 0.2231 0.2505
vt 0.2455 0.2505
vt 0.0591 0.2499
vt 0.2476 0.0701
vt 0.2476 0.0722
vt 0.2287 0.0498
vt 0.2476 0.0678
vt 0.2476 0.0660
vt 0.2476 0.0771
vt 0.2476 0.0747
vt 0.2476 0.0606
vt 0.2476 0.0629
vt 0.2476 0.0642
vt 0.2476 0.0580
vt 0.2476 0.0554
vt 0.2476 0.0525
vt 0.2476 0.0498
vt 0.1581 0.1422
vt 0.0183 0.1418
vt 0.1258 0.1320
vt 0.1099 0.1365
vt 0.1421 0.1340
vt 0.2096 0.1428
vt 0.0380 0.1429
vt 0.0934 0.1494
vt 0.0673 0.1448
vt 0.2316 0.1429
vn -0.0006 0.9987 -0.0516
vn -0.0007 0.9987 -0.0516
vn -0.0006 0.9987 -0.0515
vn -0.0007 0.9987 -0.0515
vn 0.6201 -0.0828 -0.7802
vn 0.5717 -0.1091 -0.8132
vn 0.2644 -0.1310 -0.9555
vn 0.1378 -0.1420 -0.9802
vn -0.2726 -0.1702 -0.9469
vn -0.3766 -0.1666 -0.9113
vn -0.6283 -0.1785 -0.7572
vn -0.7498 -0.1234 -0.6501
vn 0.9144 0.2714 0.3004
vn 0.9468 0.0326 0.3202
vn 0.9822 0.1558 -0.1051
vn 0.9748 0.0041 -0.2232
vn 0.8240 0.1175 -0.5543
vn 0.7503 0.0315 -0.6604
vn 0.4155 0.0987 -0.9042
vn 0.2591 0.0353 -0.9652
vn 0.8523 -0.0655 -0.5189
vn 0.8966 -0.0662 -0.4378
vn 0.9986 -0.0522 -0.0083
vn 0.9954 -0.0955 -0.0077
vn 0.8563 -0.0366 0.5151
vn -0.9655 -0.0360 -0.2577
vn -0.9882 -0.0166 0.1521
vn -0.9884 -0.0159 0.1508
vn -0.8212 0.0050 0.5707
vn -0.7506 -0.0303 0.6601
vn -0.3711 0.0113 0.9285
vn -0.2649 -0.0360 0.9636
vn 0.7038 0.3102 0.6391
vn 0.6332 0.1471 0.7599
vn 0.3337 0.3400 0.8792
vn 0.3341 0.1919 0.9228
vn -0.0193 0.1595 0.9870
vn -0.5758 0.1320 0.8069
vn -0.5355 0.4182 0.7337
vn -0.7957 0.2850 0.5344
vn -0.8978 0.0536 0.4372
vn -0.9831 0.1829 0.0023
vn -0.9967 0.0805 0.0057
vn -0.8555 0.0237 -0.5172
vn 0.3439 -0.0654 0.9367
vn 0.3409 -0.0138 0.9400
vn -0.3480 0.0636 -0.9353
vn -0.3367 0.0886 -0.9374
vn -0.1967 0.3803 0.9037
vn -0.9210 -0.0592 -0.3850
vn 0.8589 -0.0167 0.5119
vn -0.8429 0.1365 -0.5205
vn -0.7301 -0.6108 0.3066
vn -0.2709 -0.5689 0.7765
vn -0.8937 -0.1687 0.4158
vn -0.6401 -0.0851 0.7636
vn -0.9377 -0.0990 0.3330
vn -0.4641 -0.1263 0.8767
vn -0.8609 -0.1172 0.4951
vn -0.3625 -0.0557 0.9303
vn -0.7696 -0.0213 0.6382
vn -0.4158 0.0210 0.9092
vn -0.1605 -0.0571 0.9854
vn 0.4135 -0.4466 0.7934
vn -0.9115 -0.1041 -0.3979
vn -0.6823 -0.1421 -0.7171
vn -0.9219 -0.1455 -0.3590
vn -0.6428 -0.1423 -0.7527
vn -0.7871 -0.1066 -0.6075
vn -0.4384 -0.0650 -0.8964
vn -0.6899 -0.5341 -0.4885
vn -0.4201 -0.4524 -0.7867
vn 0.3502 -0.0206 0.9364
vn 0.2609 -0.0584 0.9636
vn 0.7974 -0.0870 0.5971
vn 0.4378 -0.0879 0.8948
vn 0.8556 -0.0568 0.5145
vn 0.7270 -0.0197 0.6863
vn 0.7930 -0.0772 0.6044
vn 0.7685 -0.5043 0.3938
vn 0.9850 -0.0973 0.1428
vn 0.6281 -0.7167 -0.3032
vn 0.9971 -0.0589 -0.0483
vn 0.7860 -0.1089 -0.6086
vn 0.4963 -0.1432 -0.8563
vn -0.0292 -0.1638 -0.9861
vn -0.4047 -0.1602 -0.9003
vn 0.5258 -0.1358 -0.8397
vn 0.8509 -0.1274 -0.5097
vn 0.6112 -0.0486 -0.7900
vn 0.9043 -0.0761 -0.4202
vn 0.6218 -0.3436 -0.7038
vn 0.1073 -0.1502 -0.9828
vn 0.1889 -0.0343 -0.9814
vn 0.2082 -0.4210 -0.8828
vn -0.3491 -0.1372 -0.9270
vn -0.7772 -0.6276 -0.0456
vn -0.9817 -0.1767 -0.0713
vn 0.9985 -0.0512 0.0205
vn 0.9894 -0.1245 0.0753
vn 0.8745 -0.0571 0.4816
vn -0.9910 -0.0720 0.1133
vn -0.9813 -0.1517 0.1184
vn -0.9837 -0.1054 -0.1456
vn 0.0033 0.9618 -0.2736
vn -0.0435 -0.9991 -0.0005
usemtl PAZ
s 1
f 1/1/1 2/2/1 3/3/1
f 3/3/1 2/2/1 4/4/1
f 3/3/1 4/4/1 5/5/2
f 5/5/2 4/4/1 6/6/2
f 5/5/2 6/6/2 7/7/1
f 7/7/1 6/6/2 8/8/1
f 7/7/1 8/8/1 9/9/1
f 9/9/1 8/8/1 10/10/1
f 9/9/1 10/10/1 11/11/3
f 11/11/3 10/10/1 12/12/3
f 11/11/3 12/12/3 13/13/1
f 13/13/1 12/12/3 14/14/1
f 13/13/1 14/14/1 15/15/4
f 15/15/4 14/14/1 16/16/4
f 15/15/4 16/16/4 17/17/1
f 17/17/1 16/16/4 18/18/1
f 17/17/1 18/18/1 19/19/2
f 19/19/2 18/18/1 20/20/2
f 19/19/2 20/20/2 21/21/3
f 21/21/3 20/20/2 22/22/3
f 21/21/3 22/22/3 23/23/3
f 23/23/3 22/22/3 24/24/3
f 13/13/5 25/25/6 11/11/7
f 11/11/7 25/25/6 26/26/8
f 11/11/7 26/26/8 9/9/9
f 9/9/9 26/26/8 27/27/10
f 9/9/9 27/27/10 7/7/11
f 7/7/11 27/27/10 28/28/12
f 29/29/13 6/6/14 30/30/15
f 30/30/15 6/6/14 4/4/16
f 30/30/15 4/4/16 31/31/17
f 31/31/17 4/4/16 2/2/18
f 31/31/17 2/2/18 32/32/19
f 32/32/19 2/2/18 24/33/20
f 25/25/6 13/13/5 33/34/21
f 33/34/21 13/13/5 15/15/22
f 33/34/21 15/15/22 34/35/23
f 34/35/23 15/15/22 17/17/24
f 34/35/23 17/17/24 19/19/25
f 35/36/26 36/37/27 3/3/28
f 3/3/28 36/37/27 37/38/29
f 3/3/28 37/38/29 1/1/30
f 1/1/30 37/38/29 38/39/31
f 1/1/30 38/39/31 23/40/32
f 6/6/14 29/29/13 39/41/33
f 6/6/14 39/41/33 8/8/34
f 8/8/34 39/41/33 40/42/35
f 8/8/34 40/42/35 10/10/36
f 10/10/36 40/42/35 12/12/37
f 14/14/38 41/43/39 42/44/40
f 14/14/38 42/44/40 16/16/41
f 16/16/41 42/44/40 43/45/42
f 16/16/41 43/45/42 18/18/43
f 18/18/43 43/45/42 20/20/44
f 19/19/25 21/21/45 44/46/46
f 44/46/46 21/21/45 23/23/32
f 44/46/46 23/23/32 38/47/31
f 22/22/47 20/20/44 45/48/48
f 22/22/47 45/48/48 24/24/20
f 24/24/20 45/48/48 32/49/19
f 41/43/39 14/14/38 46/50/49
f 46/50/49 14/14/38 12/12/37
f 46/50/49 12/12/37 40/42/35
f 2/2/1 1/1/1 24/33/3
f 24/33/3 1/1/1 23/40/3
f 7/7/11 28/28/12 5/5/50
f 5/5/50 28/28/12 35/36/26
f 47/51/51 34/35/23 19/19/25
f 19/19/25 44/46/46 47/51/51
f 35/36/26 3/3/28 5/5/50
f 20/20/44 43/45/42 48/52/52
f 48/52/52 45/48/48 20/20/44
f 49/53/53 50/54/54 51/55/55
f 51/55/55 50/54/54 52/56/56
f 51/55/55 52/56/56 53/57/57
f 53/57/57 52/56/56 54/58/58
f 53/57/57 54/58/58 55/59/59
f 55/59/59 54/58/58 56/60/60
f 55/59/59 56/60/60 57/61/61
f 57/61/61 56/60/60 58/62/62
f 57/61/61 58/62/62 37/63/29
f 37/63/29 58/62/62 38/64/31
f 59/65/63 52/66/56 50/67/54
f 59/65/63 50/67/54 60/68/64
f 35/69/26 28/70/12 62/71/65
f 62/71/65 28/70/12 63/72/66
f 62/71/65 63/72/66 64/73/67
f 64/73/67 63/72/66 65/74/68
f 64/73/67 65/74/68 66/75/69
f 66/75/69 65/74/68 67/76/70
f 66/75/69 67/76/70 68/77/71
f 68/77/71 67/76/70 69/78/72
f 58/79/62 56/80/60 70/81/73
f 70/81/73 56/80/60 71/82/74
f 70/81/73 71/82/74 72/83/75
f 72/83/75 71/82/74 73/84/76
f 72/83/75 73/84/76 74/85/77
f 74/85/77 73/84/76 59/65/78
f 74/85/77 59/65/78 75/86/79
f 75/86/79 59/65/78 61/87/80
f 75/86/79 61/87/80 76/88/81
f 76/88/81 61/87/80 77/89/82
f 34/90/23 78/91/83 33/92/21
f 33/92/21 78/91/83 79/93/84
f 33/92/21 79/93/84 25/94/6
f 25/94/6 79/93/84 80/95/85
f 25/94/6 80/95/85 26/96/8
f 26/96/8 80/95/85 81/97/86
f 26/96/8 81/97/86 27/98/10
f 27/98/10 81/97/86 82/99/87
f 27/98/10 82/99/87 63/72/66
f 63/72/66 82/99/87 65/74/68
f 80/95/85 79/93/84 83/100/88
f 83/100/88 79/93/84 84/101/89
f 83/100/88 84/101/89 85/102/90
f 85/102/90 84/101/89 86/103/91
f 85/102/90 86/103/91 87/104/92
f 87/104/92 86/103/91 77/89/82
f 81/97/86 80/95/85 88/105/93
f 88/105/93 80/95/85 83/100/88
f 88/105/93 83/100/88 89/106/94
f 89/106/94 83/100/88 85/102/90
f 89/106/94 85/102/90 90/107/95
f 90/107/95 85/102/90 87/104/92
f 82/99/87 81/97/86 91/108/96
f 91/108/96 81/97/86 88/105/93
f 91/108/96 88/105/93 67/76/70
f 67/76/70 88/105/93 89/106/94
f 67/76/70 89/106/94 69/78/72
f 69/78/72 89/106/94 90/107/95
f 92/109/97 49/53/53 93/110/98
f 93/110/98 49/53/53 51/55/55
f 94/111/99 76/88/81 86/103/91
f 94/111/99 86/103/91 95/112/100
f 95/112/100 86/103/91 84/101/89
f 95/112/100 84/101/89 78/91/83
f 78/91/83 84/101/89 79/93/84
f 34/90/23 47/113/51 78/91/83
f 78/91/83 47/113/51 96/114/101
f 78/91/83 96/114/101 95/112/100
f 95/112/100 96/114/101 72/83/75
f 95/112/100 72/83/75 74/85/77
f 35/69/26 62/71/65 97/115/102
f 97/115/102 62/71/65 64/73/67
f 97/115/102 64/73/67 98/116/103
f 98/116/103 64/73/67 99/117/104
f 98/116/103 99/117/104 53/57/57
f 64/73/67 66/75/69 99/117/104
f 99/117/104 66/75/69 93/110/98
f 99/117/104 93/110/98 53/57/57
f 53/57/57 93/110/98 51/55/55
f 98/116/103 53/57/57 55/59/59
f 98/116/103 55/59/59 97/115/102
f 97/115/102 55/59/59 57/61/61
f 97/115/102 57/61/61 37/63/29
f 75/86/79 76/88/81 74/85/77
f 74/85/77 76/88/81 94/111/99
f 74/85/77 94/111/99 95/112/100
f 73/84/76 71/82/74 54/118/58
f 73/84/76 54/118/58 59/65/63
f 59/65/63 54/118/58 52/66/56
f 72/83/75 96/114/101 70/81/73
f 70/81/73 96/114/101 47/113/51
f 70/81/73 47/113/51 44/119/46
f 66/75/69 68/77/71 93/110/98
f 93/110/98 68/77/71 92/109/97
f 44/119/46 38/120/31 70/81/73
f 70/81/73 38/120/31 58/79/62
f 67/76/70 65/74/68 91/108/96
f 91/108/96 65/74/68 82/99/87
f 77/89/82 86/103/91 76/88/81
f 36/121/27 35/69/26 97/115/102
f 97/115/102 37/63/29 36/121/27
f 27/98/10 63/72/66 28/70/12
f 54/118/58 71/82/74 56/80/60
f 59/65/78 60/68/64 61/87/80
f 29/122/13 30/123/15 100/124/105
f 29/122/13 100/124/105 39/125/33
f 39/125/33 100/124/105 40/126/35
f 32/127/19 100/124/105 31/128/17
f 31/128/17 100/124/105 30/123/15
f 42/129/40 41/130/39 100/124/105
f 100/124/105 41/130/39 46/131/49
f 100/124/105 46/131/49 40/126/35
f 43/132/42 100/124/105 48/133/52
f 48/133/52 100/124/105 45/134/48
f 100/124/105 32/135/19 45/134/48
f 43/132/42 42/129/40 100/124/105
f 77/89/82 61/87/80 101/136/106
f 50/54/54 49/53/53 101/137/106
f 90/107/95 87/104/92 101/138/106
f 69/78/72 90/107/95 101/139/106
f 87/104/92 77/89/82 101/140/106
f 61/87/80 60/68/64 101/141/106
f 49/53/53 92/109/97 101/142/106
f 68/77/71 69/78/72 101/143/106
f 92/109/97 68/77/71 101/144/106
f 60/68/64 50/67/54 101/145/106
