# Blender v2.78 (sub 0) OBJ File: ''
# www.blender.org
mtllib Over hair.mtl
o PAZ_HAIR.002
v -0.237890 1.926936 -0.656925
v -0.235790 2.088896 -0.596483
v -0.146663 1.935603 -0.657426
v -0.094282 2.077667 -0.586899
v -0.074309 1.916306 -0.635059
v 0.043731 2.038960 -0.541412
v 0.020747 1.904848 -0.593622
v 0.149411 1.943927 -0.471297
v 0.110674 1.851322 -0.536781
v 0.235473 1.820719 -0.392159
v 0.180246 1.706319 -0.491114
v 0.201148 1.546383 -0.441197
v 0.285917 1.522303 -0.272115
v 0.364939 1.547637 -0.075326
v -0.052352 2.248079 -0.016814
v -0.210996 2.241141 -0.263697
v -0.189424 2.259425 0.001137
v -0.168542 2.193319 0.239352
v -0.331367 2.242258 0.006034
v -0.615016 1.692091 -0.425352
v -0.657274 1.804747 -0.318336
v -0.559084 1.839339 -0.481398
v -0.589808 1.930703 -0.410169
v -0.481670 1.895860 -0.552076
v -0.621741 1.531664 -0.373151
v -0.676686 1.505082 -0.192516
v -0.723170 1.528171 0.014651
v -0.707658 1.621368 0.138283
v -0.500521 2.029223 -0.496407
v -0.395177 1.910565 -0.608526
v -0.328211 1.932355 -0.642414
v -0.373314 2.072677 -0.563825
v 0.313403 1.380153 -0.212185
v 0.264288 1.373469 -0.421143
v 0.365067 1.654860 0.051162
v 0.286270 1.963066 -0.159757
v 0.195845 2.088608 -0.234332
v 0.074978 2.177988 -0.258825
v -0.065863 2.229668 -0.270341
v 0.276429 2.005222 0.006204
v 0.197941 2.121547 -0.051869
v 0.078697 2.202505 -0.035011
v -0.358692 2.223507 -0.246375
v -0.465491 2.189579 0.009128
v -0.373048 2.169153 0.259289
v -0.546735 2.093596 0.195392
v -0.398206 1.786647 0.517756
v -0.659105 1.678872 0.341334
v -0.644252 1.983612 0.080953
v -0.684542 1.922557 -0.083039
v 0.192408 2.111622 0.135565
v 0.031464 2.177989 0.226268
v -0.583015 2.102283 0.011283
v -0.612284 2.064758 -0.168926
v 0.345161 1.706321 0.260845
v -0.136042 1.820267 0.551660
v 0.118024 1.795883 0.475068
v -0.496832 2.164342 -0.212463
v -0.623860 1.276148 -0.144179
v -0.588319 1.263846 -0.360923
v -0.084741 2.057910 0.459396
v 0.034844 2.168956 0.230025
v -0.168530 2.193224 0.239297
v 0.183879 2.097135 0.188443
v -0.057839 2.148386 0.378519
v 0.065132 2.226705 0.095323
vt 0.1055 0.9528
vt 0.1055 0.9284
vt 0.1284 0.9544
vt 0.1359 0.9274
vt 0.1536 0.9473
vt 0.1639 0.9179
vt 0.1743 0.9428
vt 0.1848 0.9053
vt 0.1970 0.9350
vt 0.2068 0.8920
vt 0.2219 0.9295
vt 0.2453 0.9253
vt 0.2522 0.8842
vt 0.2591 0.8429
vt 0.1212 0.8513
vt 0.1055 0.8853
vt 0.1055 0.8515
vt 0.1055 0.8254
vt 0.1212 0.8513
vt 0.2219 0.9295
vt 0.2068 0.8920
vt 0.1970 0.9350
vt 0.1848 0.9053
vt 0.1743 0.9428
vt 0.2453 0.9253
vt 0.2522 0.8842
vt 0.2591 0.8429
vt 0.2334 0.7862
vt 0.1639 0.9179
vt 0.1536 0.9473
vt 0.1284 0.9544
vt 0.1359 0.9274
vt 0.3029 0.8487
vt 0.3026 0.9270
vt 0.2334 0.7862
vt 0.1828 0.8536
vt 0.1628 0.8670
vt 0.1454 0.8768
vt 0.1260 0.8832
vt 0.1796 0.8376
vt 0.1566 0.8455
vt 0.1376 0.8480
vt 0.1260 0.8832
vt 0.1376 0.8480
vt 0.1324 0.8221
vt 0.1590 0.8273
vt 0.1450 0.7654
vt 0.1943 0.7678
vt 0.1796 0.8376
vt 0.1828 0.8536
vt 0.1590 0.8273
vt 0.1324 0.8221
vt 0.1566 0.8455
vt 0.1628 0.8670
vt 0.1943 0.7678
vt 0.1060 0.7658
vt 0.1450 0.7654
vt 0.1454 0.8768
vt 0.3029 0.8487
vt 0.3026 0.9270
vt 0.5448 0.7205
vt 0.5444 0.7016
vt 0.7174 0.7237
vt 0.6261 0.3846
vt 0.4365 0.3728
vt 0.4365 0.3832
vn -0.0834 0.3494 -0.9333
vn -0.0829 0.3837 -0.9197
vn 0.1390 0.3626 -0.9215
vn 0.2772 0.3465 -0.8962
vn 0.3806 0.2946 -0.8766
vn 0.5582 0.4886 -0.6706
vn 0.5660 0.2375 -0.7895
vn 0.7631 0.3030 -0.5709
vn 0.7203 0.1874 -0.6678
vn 0.8945 0.1132 -0.4325
vn 0.8334 0.0717 -0.5480
vn 0.8939 0.0721 -0.4424
vn 0.9041 0.1287 -0.4075
vn 0.9489 0.0969 -0.3002
vn 0.1716 0.9826 0.0707
vn -0.0342 0.9821 -0.1851
vn -0.0108 0.9948 0.1014
vn 0.0187 0.8941 0.4476
vn -0.1972 0.9751 0.1010
vn -0.9141 0.0404 -0.4035
vn -0.9565 0.0746 -0.2822
vn -0.8264 0.1597 -0.5399
vn -0.8571 0.2654 -0.4416
vn -0.6960 0.2150 -0.6851
vn -0.9484 -0.0856 -0.3053
vn -0.9609 -0.1106 -0.2539
vn -0.9856 -0.0845 -0.1464
vn -0.9877 0.1482 0.0506
vn -0.6785 0.4623 -0.5709
vn -0.5296 0.2783 -0.8013
vn -0.3012 0.3547 -0.8851
vn -0.4327 0.3338 -0.8375
vn 0.9678 -0.1149 -0.2238
vn 0.9279 0.1425 -0.3444
vn 0.9738 0.2005 -0.1069
vn 0.9167 0.3242 -0.2337
vn 0.7649 0.5838 -0.2721
vn 0.4799 0.8319 -0.2787
vn 0.2744 0.8546 -0.4408
vn 0.2113 0.9405 -0.2661
vn -0.0516 0.9054 -0.4213
vn 0.9018 0.4316 0.0215
vn 0.6914 0.7208 -0.0483
vn 0.4356 0.9001 0.0136
vn -0.2892 0.9303 -0.2255
vn -0.4673 0.8798 0.0869
vn -0.3047 0.9219 0.2392
vn -0.6754 0.6112 0.4126
vn -0.2255 0.5839 0.7798
vn -0.4364 0.5024 0.7464
vn -0.8427 0.3334 0.4228
vn -0.9097 0.3799 0.1675
vn -0.9611 0.2620 -0.0868
vn 0.7036 0.6442 0.3000
vn 0.3305 0.8089 0.4862
vn -0.7246 0.6858 0.0672
vn -0.8312 0.5361 -0.1473
vn 0.8806 0.3772 0.2867
vn 0.0529 0.6124 0.7888
vn 0.5312 0.5243 0.6656
vn -0.5555 0.8081 -0.1960
vn -0.3747 0.8420 -0.3882
vn -0.9481 -0.2858 -0.1392
vn -0.9536 -0.2126 -0.2129
vn 0.0410 0.9485 0.3140
vn 0.1191 0.8604 0.4955
vn 0.1409 0.8476 0.5115
vn 0.4990 0.7609 0.4149
vn 0.4900 0.7614 0.4246
vn 0.4924 0.7513 0.4395
usemtl PAZ_HAIR
s 1
f 1/1/1 2/2/2 3/3/3
f 3/3/3 2/2/2 4/4/4
f 3/3/3 4/4/4 5/5/5
f 5/5/5 4/4/4 6/6/6
f 5/5/5 6/6/6 7/7/7
f 7/7/7 6/6/6 8/8/8
f 7/7/7 8/8/8 9/9/9
f 9/9/9 8/8/8 10/10/10
f 9/9/9 10/10/10 11/11/11
f 12/12/12 11/11/11 10/10/10
f 12/12/12 10/10/10 13/13/13
f 13/13/13 10/10/10 14/14/14
f 15/15/15 16/16/16 17/17/17
f 15/15/15 17/17/17 18/18/18
f 18/18/18 17/17/17 19/19/19
f 16/16/16 19/19/19 17/17/17
f 20/20/20 21/21/21 22/22/22
f 22/22/22 21/21/21 23/23/23
f 22/22/22 23/23/23 24/24/24
f 20/20/20 25/25/25 21/21/21
f 21/21/21 25/25/25 26/26/26
f 21/21/21 26/26/26 27/27/27
f 27/27/27 28/28/28 21/21/21
f 24/24/24 29/29/29 30/30/30
f 2/2/2 1/1/1 31/31/31
f 2/2/2 31/31/31 32/32/32
f 32/32/32 31/31/31 30/30/30
f 32/32/32 30/30/30 29/29/29
f 24/24/24 23/23/23 29/29/29
f 14/14/14 33/33/33 34/34/34
f 14/14/14 34/34/34 13/13/13
f 13/13/13 34/34/34 12/12/12
f 35/35/35 14/14/14 10/10/10
f 35/35/35 10/10/10 36/36/36
f 36/36/36 10/10/10 8/8/8
f 36/36/36 8/8/8 37/37/37
f 37/37/37 8/8/8 6/6/6
f 37/37/37 6/6/6 38/38/38
f 38/38/38 6/6/6 4/4/39
f 38/38/38 4/4/39 39/39/40
f 39/39/40 4/4/39 2/2/41
f 39/39/40 2/2/41 16/16/16
f 40/40/42 36/36/36 37/37/37
f 40/40/42 37/37/37 41/41/43
f 41/41/43 37/37/37 38/38/38
f 41/41/43 38/38/38 42/42/44
f 42/42/44 38/38/38 39/39/40
f 42/42/44 39/39/40 15/15/15
f 19/19/19 43/43/45 44/44/46
f 19/19/19 44/44/46 45/45/47
f 45/45/47 44/44/46 46/46/48
f 45/45/49 46/46/48 47/47/50
f 47/47/50 46/46/48 48/48/51
f 48/48/51 46/46/48 49/49/52
f 48/48/51 49/49/52 28/28/28
f 28/28/28 49/49/52 50/50/53
f 28/28/28 50/50/53 21/21/21
f 21/21/21 50/50/53 23/23/23
f 40/40/42 41/41/43 51/51/54
f 51/51/54 41/41/43 42/42/44
f 51/51/54 42/42/44 52/52/55
f 52/52/55 42/42/44 15/15/15
f 46/46/48 44/44/46 53/53/56
f 46/46/48 53/53/56 49/49/52
f 49/49/52 53/53/56 54/54/57
f 49/49/52 54/54/57 50/50/53
f 35/35/35 36/36/36 40/40/42
f 35/35/35 40/40/42 55/55/58
f 55/55/58 40/40/42 51/51/54
f 56/56/59 57/57/60 52/52/55
f 56/56/59 52/52/55 18/18/18
f 18/18/18 52/52/55 15/15/15
f 47/47/50 56/56/59 45/45/49
f 45/45/49 56/56/59 18/18/18
f 45/45/47 18/18/18 19/19/19
f 55/55/58 51/51/54 57/57/60
f 57/57/60 51/51/54 52/52/55
f 16/16/16 15/15/15 39/39/40
f 53/53/56 58/58/61 54/54/57
f 23/23/23 54/54/57 29/29/29
f 29/29/29 58/58/61 32/32/62
f 32/32/62 43/43/45 2/2/41
f 59/59/63 27/27/27 60/60/64
f 60/60/64 27/27/27 26/26/26
f 60/60/64 26/26/26 25/25/25
f 43/43/45 58/58/61 44/44/46
f 44/44/46 58/58/61 53/53/56
f 54/54/57 23/23/23 50/50/53
f 58/58/61 29/29/29 54/54/57
f 43/43/45 32/32/62 58/58/61
f 16/16/16 2/2/41 43/43/45
f 43/43/45 19/19/19 16/16/16
f 63/61/65 61/62/66 62/63/67
f 65/64/68 64/65/69 66/66/70
