# Blender v2.78 (sub 0) OBJ File: 'Paz.blend'
# www.blender.org
mtllib Pantsu.mtl
o PAZ.001
v 0.390843 0.982399 -0.532180
v 0.557704 1.034763 -0.473580
v 0.390355 0.852179 -0.533698
v 0.050182 0.925475 -0.648616
v 0.192777 0.658173 -0.604853
v 0.032342 0.668275 -0.653699
v 0.001028 0.437293 -0.638083
v -0.130624 0.662713 -0.657151
v -0.134494 0.439252 -0.645539
v -0.270016 0.441212 -0.652996
v -0.290536 0.220760 -0.586127
v -0.380055 0.437590 -0.632245
v -0.824169 1.042016 -0.542609
v -0.652556 0.987875 -0.584300
v -0.659753 0.857690 -0.586155
v -0.302090 0.927324 -0.666213
v -0.464515 0.667675 -0.641017
v -0.292757 0.672974 -0.671586
v -0.145988 0.111095 -0.522865
v -0.140276 0.215882 -0.599150
v 0.007728 0.216447 -0.569715
v 0.107977 0.430534 -0.605392
v 0.585922 0.888895 -0.503715
v 0.672582 1.051567 -0.327403
v 0.726815 0.872331 -0.364766
v 0.781613 0.868061 -0.120766
v -0.850382 0.896433 -0.575463
v -0.953466 1.060102 -0.408628
v -0.961475 0.927210 -0.441821
v -1.040486 0.925869 -0.204436
v 0.654096 1.006474 0.119696
v 0.720651 1.047032 -0.090140
v -0.125924 0.919604 -0.658567
v -0.985586 1.030180 0.029478
v -1.027525 1.072306 -0.186327
v -0.301582 0.211063 0.353043
v -0.185720 0.148645 0.209116
v -0.187270 0.242249 0.261884
v -0.289398 0.337640 0.413010
v -0.190230 0.363868 0.347635
v -0.191264 0.491958 0.400079
v -0.099629 0.334897 0.423451
v -0.093117 0.485425 0.466978
v 0.163055 0.345901 0.468403
v 0.142995 0.518077 0.507741
v -0.296304 0.488363 0.455798
v -0.555001 0.356282 0.428894
v -0.534423 0.527870 0.470468
v -0.084594 0.207926 0.364982
v 0.411332 0.567150 0.463442
v 0.135159 0.786837 0.483551
v -0.060213 0.779994 0.450291
v -0.188885 0.703150 0.421090
v -0.317836 0.783535 0.436217
v -0.515417 0.795783 0.448009
v -0.794756 0.584586 0.397081
v -0.185208 0.794134 0.384072
v 0.594371 0.761584 0.290609
v 0.396351 0.776137 0.434374
v -0.769076 0.791336 0.371159
v -0.950587 0.781731 0.206806
v 0.133342 0.929158 0.420717
v -0.035205 0.920783 0.395630
v -0.184337 0.922938 0.387425
v -0.333468 0.925095 0.379220
v -0.503439 0.938364 0.385681
v 0.380844 0.943850 0.375588
v -0.743970 0.960112 0.313699
v -0.906093 0.993685 0.179396
v 0.557621 0.972524 0.259932
v -0.018565 0.075417 -0.377069
v -0.154493 0.069501 -0.379223
v -0.163682 0.051660 -0.216900
v -0.333533 0.080315 -0.406737
v -0.382809 0.196983 -0.579639
v 0.067530 0.211692 -0.546416
v -0.241747 0.053687 -0.150751
v -0.171481 0.097850 -0.063021
v -0.264370 0.058095 0.010744
v -0.367795 0.106596 0.251577
v -0.835518 0.410327 0.351168
v -0.613116 0.215197 0.392722
v -0.973317 0.618614 0.202576
v -0.477648 0.410467 -0.620861
v -0.647857 0.650970 -0.642757
v -0.120638 0.087249 0.023618
v -0.128082 0.060943 -0.139654
v -0.037137 0.122712 0.271979
v 0.448085 0.384563 0.421689
v 0.202171 0.210464 0.439122
v 0.623166 0.578351 0.288458
v 0.205865 0.401737 -0.588161
v 0.398413 0.629732 -0.589308
v 0.591999 0.773656 -0.528257
v 0.739064 0.769608 0.091049
v -0.828922 0.811676 -0.598869
v -1.045979 0.819042 -0.003365
vt 0.0225 0.9447
vt 0.0225 0.9302
vt 0.0824 0.9437
vt 0.0225 0.9667
vt 0.1434 0.9458
vt 0.1449 0.9762
vt 0.1817 0.9762
vt 0.1450 0.9831
vt 0.1855 0.9831
vt 0.1817 0.9762
vt 0.2157 0.9762
vt 0.1796 0.9589
vt 0.0225 0.9302
vt 0.0225 0.9447
vt 0.0824 0.9437
vt 0.0225 0.9667
vt 0.1434 0.9458
vt 0.1449 0.9762
vt 0.2402 0.9831
vt 0.2089 0.9831
vt 0.2157 0.9762
vt 0.1796 0.9589
vt 0.0849 0.9283
vt 0.0225 0.9148
vt 0.1030 0.9169
vt 0.1019 0.8988
vt 0.0849 0.9283
vt 0.0225 0.9148
vt 0.1030 0.9169
vt 0.1019 0.8988
vt 0.0225 0.8813
vt 0.0225 0.8967
vt 0.0225 0.9831
vt 0.0225 0.8813
vt 0.0225 0.8967
vt 0.1956 0.8287
vt 0.1345 0.8540
vt 0.1286 0.8400
vt 0.1568 0.8211
vt 0.1194 0.8285
vt 0.1121 0.8167
vt 0.1568 0.8211
vt 0.1267 0.8094
vt 0.1826 0.8043
vt 0.1324 0.7910
vt 0.1267 0.8094
vt 0.1826 0.8043
vt 0.1324 0.7910
vt 0.1956 0.8287
vt 0.0980 0.8051
vt 0.0228 0.7967
vt 0.1105 0.7994
vt 0.0228 0.7924
vt 0.1190 0.7936
vt 0.0613 0.7819
vt 0.1398 0.7820
vt 0.0228 0.7684
vt 0.0228 0.7625
vt 0.1771 0.7526
vt 0.1701 0.7624
vt 0.1555 0.7720
vt 0.0228 0.7818
vt 0.0233 0.8081
vt 0.0233 0.8013
vt 0.0233 0.7583
vt 0.0232 0.7526
vt 0.1028 0.8353
vt 0.0234 0.8351
vt 0.1080 0.8227
vt 0.0225 0.8219
vt 0.1052 0.8121
vt 0.0225 0.8094
vt 0.0225 0.8219
vt 0.0234 0.8351
vt 0.1028 0.8353
vt 0.1080 0.8227
vt 0.0989 0.8524
vt 0.0225 0.8515
vt 0.0989 0.8524
vt 0.0225 0.8515
vt 0.0225 0.8661
vt 0.1042 0.8665
vt 0.1042 0.8665
vt 0.0225 0.8661
vt 0.1363 0.8846
vt 0.1357 0.8964
vt 0.2437 0.8720
vt 0.1368 0.8729
vt 0.1384 0.8636
vt 0.2437 0.8720
vt 0.2437 0.8884
vt 0.1357 0.8964
vt 0.2437 0.8884
vt 0.2437 0.8595
vt 0.1393 0.8585
vt 0.2437 0.8492
vt 0.2437 0.8381
vt 0.1783 0.7744
vt 0.2437 0.7937
vt 0.2437 0.8168
vt 0.2437 0.7709
vt 0.2437 0.9045
vt 0.1290 0.9093
vt 0.1082 0.9271
vt 0.2437 0.9320
vt 0.2437 0.8492
vt 0.2437 0.8595
vt 0.2437 0.8381
vt 0.1783 0.7744
vt 0.2437 0.7937
vt 0.2437 0.8168
vt 0.2437 0.7709
vt 0.2437 0.9045
vt 0.1290 0.9093
vt 0.1082 0.9271
vt 0.2437 0.9320
vt 0.2445 0.9758
vt 0.2437 0.9554
vt 0.1984 0.9595
vt 0.1509 0.9439
vt 0.2002 0.7526
vt 0.2436 0.7526
vt 0.1166 0.8793
vt 0.2437 0.9554
vt 0.2445 0.9758
vt 0.1984 0.9595
vt 0.1509 0.9439
vt 0.2002 0.7526
vt 0.2436 0.7526
vt 0.1166 0.8793
vt 0.1166 0.8789
vt 0.1042 0.8634
vn 0.3254 0.0098 -0.9455
vn 0.4156 0.1769 -0.8922
vn 0.2176 0.1262 -0.9678
vn 0.2497 0.0106 -0.9683
vn 0.2187 -0.0091 -0.9758
vn 0.1364 -0.0333 -0.9901
vn 0.1618 -0.1522 -0.9750
vn 0.0543 -0.0435 -0.9976
vn 0.0513 -0.1846 -0.9815
vn -0.0567 -0.1500 -0.9871
vn -0.0659 -0.4425 -0.8943
vn -0.1247 -0.1698 -0.9776
vn -0.3210 0.1848 -0.9289
vn -0.2259 0.0264 -0.9738
vn -0.1186 0.1433 -0.9825
vn -0.1463 0.0279 -0.9888
vn -0.1226 -0.0037 -0.9924
vn -0.0263 -0.0276 -0.9993
vn 0.0408 -0.8149 -0.5781
vn 0.0443 -0.4062 -0.9127
vn 0.2106 -0.4674 -0.8586
vn 0.2051 -0.1637 -0.9649
vn 0.4390 0.2612 -0.8596
vn 0.8433 0.3298 -0.4245
vn 0.8611 0.3272 -0.3891
vn 0.9461 0.3229 0.0256
vn -0.3976 0.2220 -0.8903
vn -0.8416 0.1899 -0.5057
vn -0.8431 0.2350 -0.4838
vn -0.9915 0.1299 -0.0001
vn 0.8535 0.2455 0.4597
vn 0.9476 0.3089 0.0810
vn 0.0525 0.0064 -0.9986
vn -0.9294 0.1892 0.3169
vn -0.9936 0.0955 -0.0610
vn 0.3736 -0.5605 0.7391
vn -0.0044 -0.8749 0.4844
vn 0.6164 -0.4049 0.6753
vn 0.3637 -0.3493 0.8635
vn 0.5767 -0.3861 0.7200
vn -0.0393 -0.1869 0.9816
vn -0.6631 -0.3682 0.6517
vn -0.4669 -0.3359 0.8181
vn -0.3194 -0.1078 0.9415
vn -0.0148 -0.2253 0.9742
vn 0.0067 -0.0622 0.9980
vn 0.2198 -0.1178 0.9684
vn -0.0985 -0.2209 0.9703
vn -0.1181 -0.0609 0.9911
vn -0.6982 -0.3859 0.6030
vn -0.4603 -0.5676 0.6826
vn 0.4128 0.0442 0.9097
vn 0.0555 0.2496 0.9668
vn -0.2533 0.2579 0.9324
vn -0.1870 0.1329 0.9733
vn 0.1841 0.2119 0.9598
vn -0.1538 0.2521 0.9554
vn -0.5155 0.0570 0.8550
vn -0.0500 0.2549 0.9657
vn 0.7025 0.1703 0.6910
vn 0.4150 0.2429 0.8768
vn -0.5014 0.2551 0.8268
vn -0.7891 0.1737 0.5892
vn -0.0610 0.3971 0.9158
vn -0.2084 0.2577 0.9435
vn -0.0553 -0.0256 0.9981
vn 0.1103 0.2540 0.9609
vn -0.0284 0.3969 0.9174
vn 0.2727 0.3617 0.8915
vn -0.3589 0.3692 0.8573
vn -0.6929 0.2742 0.6669
vn 0.6223 0.2590 0.7387
vn 0.1693 -0.9391 -0.2989
vn 0.0078 -0.9811 -0.1931
vn -0.0062 -0.9987 0.0507
vn -0.0561 -0.9294 -0.3649
vn 0.2902 -0.5767 -0.7637
vn 0.4394 -0.5513 -0.7092
vn 0.2367 -0.9714 0.0179
vn 0.0061 -0.9804 0.1970
vn 0.4497 -0.8733 0.1875
vn 0.2408 -0.7947 0.5572
vn -0.4811 -0.0785 0.8731
vn -0.0226 -0.3256 0.9452
vn -0.7800 0.0907 0.6191
vn -0.0282 -0.1072 -0.9938
vn 0.0162 0.1485 -0.9888
vn -0.4269 -0.8955 0.1257
vn -0.1920 -0.9594 0.2067
vn -0.2443 -0.8200 0.5175
vn 0.3689 -0.0916 0.9249
vn -0.0669 -0.3439 0.9366
vn 0.6862 0.0802 0.7229
vn 0.1139 -0.0562 -0.9919
vn 0.0906 0.1518 -0.9843
vn 0.2855 0.2045 -0.9363
vn 0.8448 0.2440 0.4762
vn -0.1008 0.1763 -0.9792
vn -0.9251 0.2185 0.3105
usemtl PAZ
s 1
f 1/1/1 2/2/2 3/3/3
f 1/1/1 3/3/3 4/4/4
f 4/4/4 3/3/3 5/5/5
f 4/4/4 5/5/5 6/6/6
f 6/6/6 5/5/5 7/7/7
f 6/6/6 7/7/7 8/8/8
f 8/8/8 7/7/7 9/9/9
f 8/8/8 9/9/9 10/10/10
f 10/10/10 9/9/9 11/11/11
f 10/10/10 11/11/11 12/12/12
f 13/13/13 14/14/14 15/15/15
f 15/15/15 14/14/14 16/16/16
f 15/15/15 16/16/16 17/17/17
f 17/17/17 16/16/16 18/18/18
f 17/17/17 18/18/18 10/10/10
f 10/10/10 18/18/18 8/8/8
f 19/19/19 11/11/11 20/20/20
f 20/20/20 11/11/11 9/9/9
f 20/20/20 9/9/9 21/21/21
f 21/21/21 9/9/9 7/7/7
f 21/21/21 7/7/7 22/22/22
f 23/23/23 2/2/2 24/24/24
f 23/23/23 24/24/24 25/25/25
f 25/25/25 24/24/24 26/26/26
f 13/13/13 27/27/27 28/28/28
f 28/28/28 27/27/27 29/29/29
f 28/28/28 29/29/29 30/30/30
f 31/31/31 26/26/26 32/32/32
f 32/32/32 26/26/26 24/24/24
f 8/8/8 33/33/33 6/6/6
f 6/6/6 33/33/33 4/4/4
f 34/34/34 35/35/35 30/30/30
f 30/30/30 35/35/35 28/28/28
f 8/8/8 18/18/18 33/33/33
f 33/33/33 18/18/18 16/16/16
f 20/20/20 21/21/21 19/19/19
f 7/7/7 5/5/5 22/22/22
f 12/12/12 17/17/17 10/10/10
f 36/36/36 37/37/37 38/38/38
f 36/36/36 38/38/38 39/39/39
f 39/39/39 38/38/38 40/40/40
f 39/39/39 40/40/40 41/41/41
f 41/41/41 40/40/42 42/42/43
f 41/41/41 42/42/43 43/43/44
f 43/43/44 42/42/43 44/44/45
f 43/43/44 44/44/45 45/45/46
f 39/39/39 41/41/41 46/46/47
f 39/39/39 46/46/47 47/47/48
f 47/47/48 46/46/47 48/48/49
f 42/42/43 38/38/50 49/49/51
f 49/49/51 38/38/50 37/37/37
f 42/42/43 40/40/42 38/38/50
f 50/50/52 51/51/53 45/52/46
f 45/52/46 51/51/53 52/53/54
f 45/52/46 52/53/54 43/54/44
f 43/54/44 52/53/54 53/55/55
f 43/54/44 53/55/55 41/56/41
f 41/56/41 53/55/55 54/57/56
f 55/58/57 56/59/58 48/60/49
f 55/58/57 48/60/49 54/57/56
f 54/57/56 48/60/49 46/61/47
f 54/57/56 46/61/47 41/56/41
f 52/53/54 57/62/59 53/55/55
f 53/55/55 57/62/59 54/57/56
f 58/63/60 59/64/61 50/50/52
f 56/59/58 60/65/62 61/66/63
f 51/67/53 62/68/64 52/69/54
f 52/69/54 62/68/64 63/70/65
f 52/69/54 63/70/65 57/71/59
f 57/71/59 63/70/65 64/72/66
f 57/71/59 64/72/66 65/73/67
f 66/74/68 55/75/57 54/76/56
f 66/74/68 54/76/56 65/73/67
f 65/73/67 54/76/56 57/71/59
f 59/77/61 67/78/69 51/67/53
f 51/67/53 67/78/69 62/68/64
f 60/79/62 55/75/57 68/80/70
f 68/80/70 55/75/57 66/74/68
f 68/80/70 69/81/71 60/79/62
f 60/79/62 69/81/71 61/82/63
f 58/83/60 31/31/31 70/84/72
f 59/77/61 70/84/72 67/78/69
f 69/81/71 34/34/34 61/82/63
f 19/85/19 21/86/21 71/87/73
f 19/85/19 71/87/73 72/88/74
f 72/88/74 71/87/73 73/89/75
f 72/88/74 73/89/75 74/90/76
f 75/91/77 11/92/11 74/90/76
f 74/90/76 11/92/11 19/85/19
f 74/90/76 19/85/19 72/88/74
f 76/93/78 71/87/73 21/86/21
f 51/51/53 50/50/52 59/64/61
f 3/3/3 2/2/2 23/23/23
f 70/84/72 59/77/61 58/83/60
f 60/65/62 56/59/58 55/58/57
f 27/27/27 13/13/13 15/15/15
f 77/94/79 78/95/80 79/96/81
f 79/96/81 78/95/80 37/37/37
f 79/96/81 37/37/37 80/97/82
f 78/95/80 77/94/79 73/89/75
f 73/89/75 77/94/79 74/90/76
f 80/97/82 37/37/37 36/36/36
f 48/48/49 56/98/58 81/99/83
f 48/48/49 81/99/83 47/47/48
f 47/47/48 81/99/83 82/100/84
f 36/36/36 39/39/39 82/100/84
f 82/100/84 39/39/39 47/47/48
f 82/100/84 80/97/82 36/36/36
f 56/98/58 83/101/85 81/99/83
f 11/92/11 75/91/77 84/102/86
f 11/92/11 84/102/86 12/103/12
f 12/103/12 84/102/86 17/104/17
f 85/105/87 17/104/17 84/102/86
f 86/106/88 78/95/80 87/107/89
f 87/107/89 78/95/80 73/89/75
f 87/107/89 73/89/75 71/87/73
f 88/108/90 49/49/51 37/37/37
f 88/108/90 37/37/37 86/106/88
f 86/106/88 37/37/37 78/95/80
f 50/109/52 45/45/46 89/110/91
f 89/110/91 45/45/46 44/44/45
f 89/110/91 44/44/45 90/111/92
f 49/49/51 90/111/92 42/42/43
f 42/42/43 90/111/92 44/44/45
f 49/49/51 88/108/90 90/111/92
f 89/110/91 91/112/93 50/109/52
f 76/93/78 21/86/21 92/113/94
f 92/113/94 21/86/21 22/114/22
f 92/113/94 22/114/22 5/115/5
f 92/113/94 5/115/5 93/116/95
f 25/117/25 94/118/96 23/119/23
f 23/119/23 94/118/96 93/116/95
f 23/119/23 93/116/95 3/120/3
f 3/120/3 93/116/95 5/115/5
f 50/109/52 91/112/93 58/121/60
f 58/121/60 91/112/93 95/122/97
f 95/123/97 26/26/26 31/31/31
f 31/31/31 58/83/60 95/123/97
f 96/124/98 29/125/29 27/126/27
f 96/124/98 27/126/27 85/105/87
f 85/105/87 27/126/27 15/127/15
f 85/105/87 15/127/15 17/104/17
f 56/98/58 61/128/63 83/101/85
f 83/101/85 61/128/63 97/129/99
f 34/34/34 30/30/30 97/130/99
f 97/131/99 61/132/63 34/34/34
