# Blender v2.78 (sub 0) OBJ File: 'Paz.blend'
# www.blender.org
mtllib Ribbon.mtl
o PAZ.003
v -0.380215 1.059489 -0.418308
v -0.366756 1.044867 -0.445001
v -0.401872 1.012465 -0.430812
v -0.388133 1.004151 -0.464410
v -0.437912 0.931206 -0.469557
v -0.397062 0.922235 -0.495913
v -0.425830 0.876021 -0.488161
v -0.391149 0.894838 -0.501956
v -0.378419 0.867426 -0.501006
v -0.250688 1.165543 -0.379772
v -0.218051 1.149616 -0.378879
v -0.237895 1.062275 -0.403323
v -0.271208 1.076351 -0.417561
v -0.252931 1.015050 -0.408830
v -0.279322 1.035796 -0.423378
v -0.276889 0.886090 -0.446038
v -0.303279 0.906837 -0.460586
v -0.318845 0.839516 -0.458787
v -0.331136 0.873222 -0.480277
v -0.175013 1.229472 -0.307015
v -0.176213 1.215880 -0.313432
v -0.202903 1.217651 -0.334126
v -0.208100 1.239506 -0.307715
v -0.208705 1.223192 -0.381847
v -0.226612 1.252962 -0.356052
v -0.188607 1.230998 -0.300481
v -0.176985 1.209533 -0.299561
v -0.198143 1.196832 -0.333298
v -0.262522 1.227761 -0.396187
v -0.243855 1.204889 -0.415510
v -0.351571 0.866969 -0.487049
v -0.352873 0.833692 -0.465726
v -0.393173 0.841477 -0.473137
v -0.087210 0.879702 -0.457329
v -0.095623 0.839753 -0.435891
v -0.106787 0.907725 -0.444737
v -0.128068 0.888487 -0.430776
v -0.125261 0.976324 -0.433323
v -0.152902 0.964377 -0.412927
v -0.068721 0.825106 -0.448601
v -0.080870 0.865706 -0.463568
v -0.048353 0.824262 -0.455259
v -0.053590 0.871354 -0.470147
v -0.020785 0.843897 -0.448606
v -0.039489 0.884311 -0.477281
v -0.134561 1.216209 -0.380860
v -0.111999 1.241922 -0.361239
v -0.114804 1.206879 -0.400681
v -0.093522 1.219069 -0.380566
v 0.004977 1.026811 -0.419876
v -0.018333 0.910652 -0.477813
v -0.017184 0.951621 -0.465365
v 0.014611 0.890093 -0.449560
v -0.149277 1.213098 -0.319790
v -0.183007 1.217018 -0.299901
v -0.140749 1.233654 -0.293388
v -0.029479 1.000106 -0.446568
v 0.023546 0.964719 -0.438202
v -0.181806 1.230601 -0.293675
v -0.182376 1.223686 -0.300145
v -0.128081 1.074634 -0.402624
v -0.183068 1.217271 -0.293186
v -0.175705 1.223057 -0.300055
v -0.163838 1.200581 -0.326185
v -0.148585 1.219513 -0.326748
v -0.159321 1.118645 -0.370469
v -0.124856 1.122231 -0.390595
v -0.156097 1.063460 -0.388892
v -0.043585 0.679298 -0.581698
v -0.041109 0.520472 -0.693266
v -0.091228 0.699455 -0.576028
v -0.044324 0.960358 -0.431931
v -0.071874 0.962204 -0.398494
v -0.047663 1.073676 -0.394669
v -0.068543 1.068604 -0.367657
v -0.076968 1.125325 -0.396922
v -0.084644 1.120296 -0.363018
v -0.096817 1.186047 -0.365908
v -0.106111 1.159888 -0.358099
v -0.162049 1.221272 -0.313496
v -0.088493 0.526674 -0.700892
v -0.177555 1.202615 -0.306030
v -0.323592 0.834763 -0.527698
v -0.357380 0.807448 -0.527440
v -0.328910 0.955358 -0.448664
v -0.363011 0.942245 -0.469029
v -0.312219 1.066144 -0.390640
v -0.338703 1.073058 -0.425151
v -0.293824 1.134880 -0.372442
v -0.305893 1.148205 -0.407032
v -0.254967 1.166928 -0.366736
v -0.258386 1.201018 -0.374775
v -0.326004 0.518371 -0.696597
v -0.278617 0.545646 -0.710330
v -0.189114 1.223822 -0.313857
vt 0.8602 0.7323
vt 0.8248 0.7421
vt 0.8643 0.7413
vt 0.8256 0.7281
vt 0.7855 0.6687
vt 0.7179 0.6084
vt 0.6588 0.4230
vt 0.6436 0.4395
vt 0.5115 0.2405
vt 0.3286 0.6992
vt 0.2785 0.7289
vt 0.2983 0.6057
vt 0.2078 0.5854
vt 0.1781 0.5629
vt 0.1656 0.5943
vt 0.1999 0.5622
vt 0.2020 0.5152
vt 0.2379 0.4200
vt 0.1991 0.3502
vt 0.2939 0.8418
vt 0.2939 0.8418
vt 0.1356 0.7947
vt 0.1298 0.8111
vt 0.1540 0.8428
vt 0.2950 0.9082
vt 0.1048 0.6719
vt 0.1048 0.6719
vt 0.1704 0.7288
vt 0.0980 0.6795
vt 0.6612 0.8292
vt 0.4884 0.8704
vt 0.3124 0.2140
vt 0.2964 0.2692
vt 0.4490 0.2071
vt 0.8109 0.3649
vt 0.7669 0.3923
vt 0.7776 0.4312
vt 0.7331 0.4583
vt 0.7518 0.5199
vt 0.7465 0.5594
vt 0.7062 0.3410
vt 0.6152 0.3312
vt 0.4417 0.3642
vt 0.4181 0.3420
vt 0.3404 0.3513
vt 0.2969 0.3479
vt 0.8134 0.8346
vt 0.6055 0.9160
vt 0.3457 0.8271
vt 0.2860 0.8244
vt 0.2472 0.7253
vt 0.1876 0.4922
vt 0.1832 0.6405
vt 0.1909 0.4925
vt 0.8041 0.7998
vt 0.5995 0.8553
vt 0.8264 0.8168
vt 0.2556 0.7239
vt 0.2153 0.6782
vt 0.5995 0.8553
vt 0.5995 0.8553
vt 0.7589 0.6086
vt 0.7852 0.7398
vt 0.7852 0.7398
vt 0.6897 0.7300
vt 0.7070 0.7231
vt 0.6919 0.6791
vt 0.7488 0.6468
vt 0.7542 0.6148
vt 0.4957 0.7951
vt 0.4052 0.8161
vt 0.4957 0.7951
vt 0.7325 0.6782
vt 0.7325 0.6782
vt 0.8838 0.4458
vt 0.8838 0.4458
vt 0.8957 0.3428
vt 0.8957 0.3428
vt 0.8419 0.4319
vt 0.8419 0.4319
vt 0.7556 0.4874
vt 0.4052 0.8161
vt 0.7556 0.4874
vt 0.5843 0.7407
vt 0.5843 0.7407
vt 0.2990 0.7154
vt 0.2990 0.7154
vt 0.0881 0.5510
vt 0.0881 0.5510
vt 0.0755 0.4072
vt 0.0755 0.4072
vt 0.1284 0.4311
vt 0.1284 0.4311
vt 0.1588 0.5100
vt 0.6878 0.7220
vt 0.6878 0.7220
vt 0.1588 0.5078
vt 0.1588 0.5100
vn -0.6427 0.4874 -0.5911
vn -0.5966 0.5031 -0.6253
vn -0.7015 0.5232 -0.4839
vn -0.6453 0.5027 -0.5752
vn -0.5832 0.3689 -0.7238
vn -0.4606 0.2168 -0.8607
vn -0.4023 -0.1304 -0.9062
vn -0.3560 -0.0286 -0.9340
vn -0.1135 -0.5639 -0.8180
vn 0.2957 0.3315 -0.8959
vn 0.2041 0.3673 -0.9074
vn 0.3387 0.1604 -0.9271
vn 0.4549 0.0875 -0.8862
vn 0.4831 0.0476 -0.8743
vn 0.5380 0.0972 -0.8373
vn 0.5119 0.0499 -0.8576
vn 0.5676 -0.0566 -0.8214
vn 0.4697 -0.2595 -0.8439
vn 0.4685 -0.3914 -0.7920
vn 0.4424 0.5610 -0.6997
vn 0.5970 0.2988 -0.7445
vn 0.6221 0.5012 -0.6015
vn 0.7281 0.6186 -0.2953
vn 0.7328 0.6008 -0.3196
vn 0.4507 0.7291 -0.5151
vn 0.7761 0.3992 -0.4882
vn -0.8767 -0.1827 0.4450
vn -0.8533 -0.1756 0.4909
vn -0.8277 -0.1679 0.5355
vn -0.2719 0.6004 -0.7520
vn 0.0421 0.6566 -0.7531
vn 0.2528 -0.6208 -0.7421
vn 0.2392 -0.5054 -0.8291
vn 0.6222 0.5011 -0.6015
vn 0.0085 -0.6681 -0.7440
vn -0.7656 -0.2993 -0.5694
vn -0.5660 -0.2354 -0.7901
vn -0.5697 -0.1342 -0.8108
vn -0.5215 -0.0657 -0.8507
vn -0.5957 0.0676 -0.8004
vn -0.5787 0.1339 -0.8045
vn -0.6415 -0.3847 -0.6637
vn -0.2308 -0.3621 -0.9031
vn -0.0260 -0.3361 -0.9415
vn 0.1070 -0.3810 -0.9184
vn 0.3154 -0.3934 -0.8636
vn 0.3377 -0.4404 -0.8319
vn -0.6186 0.7053 -0.3462
vn -0.2702 0.7970 -0.5401
vn 0.2152 0.5913 -0.7772
vn 0.3583 0.5807 -0.7310
vn 0.4205 0.3752 -0.8261
vn 0.6104 -0.1014 -0.7856
vn 0.5620 0.2279 -0.7951
vn 0.5605 -0.1288 -0.8181
vn -0.5632 0.7303 -0.3867
vn -0.1333 0.6362 -0.7599
vn -0.4887 0.7057 -0.5130
vn -0.9239 -0.3407 -0.1744
vn 0.3915 0.3776 -0.8391
vn 0.4481 0.2860 -0.8470
vn -0.4887 0.7058 -0.5129
vn -0.1334 0.6363 -0.7599
vn -0.0247 0.4183 -0.9079
vn 0.9955 -0.0937 0.0125
vn -0.5465 0.2163 -0.8090
vn -0.7628 0.2768 -0.5845
vn -0.6835 0.3704 -0.6289
vn -0.6285 0.3782 -0.6796
vn -0.5335 0.4127 -0.7383
vn -0.5050 0.3418 -0.7925
vn -0.5032 0.2938 -0.8127
vn -0.5013 0.2267 -0.8350
vn 0.1196 0.5205 -0.8455
vn 0.1740 0.5732 -0.8007
vn -0.0643 0.5567 -0.8282
vn -0.4928 0.4042 -0.7706
vn -0.7485 0.2764 -0.6027
vn -0.7757 -0.0124 -0.6310
vn -0.8465 -0.1718 -0.5039
vn -0.8778 -0.2970 -0.3759
vn -0.8374 -0.2078 -0.5055
vn -0.7177 -0.1122 -0.6872
vn -0.5356 -0.0040 -0.8445
vn -0.5862 0.0532 -0.8084
vn 0.2028 0.5757 -0.7921
vn -0.5395 0.1145 -0.8342
vn -0.4111 0.4506 -0.7924
vn -0.1440 0.4684 -0.8717
vn 0.1128 0.4522 -0.8848
vn 0.5266 0.2878 -0.7999
vn 0.6786 0.1384 -0.7214
vn 0.8299 -0.0929 -0.5501
vn 0.7857 -0.3402 -0.5167
vn 0.7375 -0.3644 -0.5686
vn 0.6584 -0.3057 -0.6877
vn 0.6466 -0.0525 -0.7610
vn 0.6480 -0.0213 -0.7614
vn -0.4155 0.4308 -0.8011
vn -0.4669 0.4192 -0.7786
vn 0.6454 0.0711 -0.7605
usemtl Material.001
s 1
f 1/1/1 2/2/2 3/3/3
f 3/3/3 2/2/2 4/4/4
f 3/3/3 4/4/4 5/5/5
f 5/5/5 4/4/4 6/6/6
f 5/5/5 6/6/6 7/7/7
f 7/7/7 6/6/6 8/8/8
f 7/7/7 8/8/8 9/9/9
f 10/10/10 11/11/11 12/12/12
f 10/10/10 12/12/12 13/13/13
f 13/13/13 12/12/12 14/14/14
f 13/13/13 14/14/14 15/15/15
f 15/15/15 14/14/14 16/16/16
f 15/15/15 16/16/16 17/17/17
f 17/17/17 16/16/16 18/18/18
f 17/17/17 18/18/18 19/19/19
f 20/20/20 21/21/21 22/22/22
f 20/20/20 22/22/22 23/23/23
f 23/23/23 22/22/22 24/24/24
f 23/23/23 24/24/24 25/25/25
f 26/26/26 27/27/26 22/28/22
f 26/26/27 22/28/28 28/29/28
f 28/29/28 22/28/28 11/11/29
f 29/30/30 25/25/25 30/31/31
f 30/31/31 25/25/25 24/24/24
f 31/32/32 19/19/19 32/33/33
f 32/33/33 19/19/19 18/18/18
f 10/10/10 22/28/34 11/11/11
f 1/1/1 29/30/30 2/2/2
f 32/33/33 33/34/35 31/32/32
f 33/34/35 7/7/7 9/9/9
f 2/2/2 29/30/30 30/31/31
f 31/32/32 33/34/35 9/9/9
f 34/35/36 35/36/37 36/37/38
f 36/37/38 35/36/37 37/38/39
f 36/37/38 37/38/39 38/39/40
f 38/39/40 37/38/39 39/40/41
f 40/41/42 41/42/43 42/43/44
f 42/43/44 41/42/43 43/44/45
f 42/43/44 43/44/45 44/45/46
f 44/45/46 43/44/45 45/46/47
f 46/47/48 47/48/49 48/49/50
f 48/49/50 47/48/49 49/50/51
f 48/49/50 49/50/51 50/51/52
f 51/52/53 52/53/54 53/54/55
f 51/52/53 53/54/55 45/46/47
f 45/46/47 53/54/55 44/45/46
f 54/55/56 55/56/57 56/57/58
f 54/55/56 56/57/58 46/47/48
f 46/47/48 56/57/58 47/48/49
f 41/42/59 40/41/42 34/35/36
f 34/35/36 40/41/42 35/36/37
f 52/53/54 57/58/60 58/59/61
f 58/59/61 57/58/60 50/51/52
f 56/57/62 55/56/63 59/60/64
f 59/60/65 55/56/65 60/61/65
f 39/40/41 61/62/66 38/39/40
f 57/58/60 48/49/50 50/51/52
f 62/63/67 63/64/68 64/65/69
f 64/65/69 63/64/68 65/66/70
f 64/65/69 65/66/70 66/67/71
f 66/67/71 65/66/70 67/68/72
f 66/67/71 67/68/72 68/69/73
f 68/69/73 67/68/72 61/62/66
f 61/62/66 39/40/41 68/69/73
f 58/59/61 53/54/55 52/53/54
f 69/70/74 70/71/75 71/72/76
f 69/70/74 71/72/76 72/73/77
f 72/73/77 71/72/76 73/74/78
f 72/73/77 73/74/78 74/75/79
f 74/75/79 73/74/78 75/76/80
f 74/75/79 75/76/80 76/77/81
f 76/77/81 75/76/80 77/78/82
f 76/77/81 77/78/82 78/79/83
f 78/79/83 77/78/82 79/80/84
f 78/79/83 79/80/84 80/81/85
f 71/72/76 70/71/75 81/82/86
f 80/81/85 79/80/84 82/83/87
f 83/84/88 84/85/89 85/86/90
f 85/86/90 84/85/89 86/87/91
f 85/86/90 86/87/91 87/88/92
f 87/88/92 86/87/91 88/89/93
f 87/88/92 88/89/93 89/90/94
f 89/90/94 88/89/93 90/91/95
f 89/90/94 90/91/95 91/92/96
f 91/92/96 90/91/95 92/93/97
f 91/92/96 92/93/97 82/94/98
f 84/85/89 83/84/88 93/95/99
f 93/95/99 83/84/88 94/96/100
f 82/97/98 92/93/97 95/98/101
