# Blender v2.78 (sub 0) OBJ File: 'Paz.blend'
# www.blender.org
mtllib Right Boot Leg.mtl
o PAZ.002
v 0.539126 1.597407 0.122308
v 0.792839 2.453622 0.134539
v 0.800057 2.454165 0.140696
v 0.893165 2.442774 -0.063603
v 0.907273 2.443418 -0.057988
v 0.892578 2.430867 -0.247077
v 0.905456 2.430622 -0.254817
v 0.803450 2.417228 -0.430116
v 0.815984 2.416530 -0.444747
v 0.673848 2.408696 -0.521959
v 0.679507 2.407907 -0.535856
v 0.514067 2.402820 -0.563576
v 0.513013 2.401919 -0.577137
v 0.414535 2.403103 -0.528648
v 0.407317 2.402560 -0.534806
v 0.248628 2.409020 -0.386455
v 0.234697 2.408366 -0.392276
v 0.168245 2.419716 -0.196801
v 0.154137 2.419070 -0.202416
v 0.213072 2.435352 0.030658
v 0.200003 2.435595 0.038412
v 0.385455 2.451993 0.234433
v 0.379810 2.452793 0.248521
v 0.630988 2.457382 0.242207
v 0.632042 2.458282 0.255767
v 0.907595 2.349655 -0.242854
v 0.908373 2.361563 -0.059394
v 0.801157 2.372310 0.139289
v 0.633142 2.376427 0.254360
v 0.417209 2.322592 -0.509810
v 0.516206 2.321852 -0.551614
v 0.676522 2.328185 -0.503120
v 0.806108 2.336705 -0.411469
v 0.819177 2.336462 -0.419224
v 0.682166 2.327384 -0.517209
v 0.409456 2.321592 -0.522843
v 0.242495 2.326610 -0.394211
v 0.162975 2.338202 -0.190981
v 0.249713 2.327152 -0.388053
v 0.176563 2.338403 -0.192050
v 0.894198 2.349456 -0.241799
v 0.894785 2.361362 -0.058325
v 0.793924 2.371755 0.132940
v 0.632088 2.375527 0.240799
v 0.387594 2.371025 0.246396
v 0.515152 2.320951 -0.565175
v 0.393253 2.370237 0.232499
v 0.201103 2.353741 0.037005
v 0.214692 2.353941 0.035935
v 0.183568 1.986324 -0.169226
v 0.264143 1.975632 -0.358896
v 0.424596 1.977854 -0.480748
v 0.530693 1.984373 -0.516638
v 0.684559 2.004650 -0.461814
v 0.814013 2.019876 -0.370597
v 0.900792 2.045340 -0.215179
v 0.912727 2.062352 -0.060331
v 0.856695 1.591823 -0.168141
v 0.858918 1.599343 -0.052823
v 0.805261 1.144482 -0.127505
v 0.751672 1.155573 0.060040
v 0.694777 0.820827 0.083191
v 0.597265 0.813796 0.225669
v 0.749151 0.945530 0.074177
v 0.636871 0.951791 0.205232
v 0.643593 1.165422 0.245148
v 0.761355 1.605540 0.179573
v 0.645218 1.608668 0.263465
v 0.795260 2.075588 0.179899
v 0.639069 2.078559 0.273670
v 0.408181 2.046804 0.273264
v 0.447075 1.597261 0.252215
v 0.274692 1.580621 0.048440
v 0.480646 1.169281 0.250801
v 0.342986 1.154028 0.057744
v 0.488509 0.950044 0.223826
v 0.369230 0.945742 0.090179
v 0.468303 0.816574 0.228876
v 0.369289 0.828948 0.080466
v 0.371550 0.760263 -0.243669
v 0.293461 0.959933 -0.089185
v 0.543901 1.561810 -0.428245
v 0.444041 1.561654 -0.400016
v 0.528165 1.130357 -0.364225
v 0.435522 1.130743 -0.329839
v 0.539555 0.885738 -0.390628
v 0.437127 0.881791 -0.351500
v 0.669685 1.574094 -0.384219
v 0.651458 1.133502 -0.353558
v 0.667830 0.881046 -0.366012
v 0.282858 1.559165 -0.285038
v 0.354314 1.135272 -0.235051
v 0.784821 1.581517 -0.305074
v 0.747304 1.134816 -0.258807
v 0.808500 0.954385 -0.122088
v 0.734116 0.850559 -0.235916
v 0.302894 1.142435 -0.108786
v 0.219424 1.567471 -0.137457
v 0.227071 2.014663 0.043789
v 0.752224 0.828139 -0.087876
v 0.563204 0.737322 -0.105740
vt 0.7651 0.2239
vt 0.7656 0.2197
vt 0.7869 0.2239
vt 0.7877 0.2197
vt 0.8048 0.2239
vt 0.8054 0.2197
vt 0.8248 0.2239
vt 0.8251 0.2197
vt 0.8403 0.2239
vt 0.8405 0.2197
vt 0.8567 0.2239
vt 0.8566 0.2197
vt 0.8671 0.2239
vt 0.8670 0.2197
vt 0.8883 0.2239
vt 0.8878 0.2197
vt 0.9083 0.2239
vt 0.9076 0.2197
vt 0.9312 0.2239
vt 0.9306 0.2197
vt 0.9577 0.2239
vt 0.9577 0.2197
vt 0.9762 0.2239
vt 0.9762 0.2197
vt 0.8049 0.1933
vt 0.7872 0.1933
vt 0.7656 0.1933
vt 0.7460 0.1933
vt 0.7460 0.2197
vt 0.8670 0.2503
vt 0.8564 0.2503
vt 0.8398 0.2503
vt 0.8240 0.2503
vt 0.8239 0.1933
vt 0.8397 0.1933
vt 0.8673 0.1933
vt 0.8874 0.1933
vt 0.9082 0.1933
vt 0.8873 0.2503
vt 0.9082 0.2503
vt 0.8050 0.2503
vt 0.7872 0.2503
vt 0.7653 0.2503
vt 0.7460 0.2503
vt 0.7460 0.2239
vt 0.9577 0.1933
vt 0.9762 0.1933
vt 0.8564 0.1933
vt 0.9577 0.2503
vt 0.9762 0.2503
vt 0.7460 0.2236
vt 0.9308 0.1933
vt 0.9308 0.2503
vt 0.1760 0.2251
vt 0.1771 0.2505
vt 0.1562 0.2505
vt 0.1553 0.2251
vt 0.1363 0.2505
vt 0.1354 0.2251
vt 0.1258 0.2502
vt 0.1258 0.2247
vt 0.1107 0.2499
vt 0.1097 0.2245
vt 0.0957 0.2492
vt 0.0942 0.2238
vt 0.0767 0.2499
vt 0.0762 0.2245
vt 0.0612 0.2245
vt 0.0761 0.1999
vt 0.0630 0.2020
vt 0.0774 0.1712
vt 0.0500 0.1758
vt 0.0183 0.1418
vt 0.0380 0.1429
vt 0.0445 0.1520
vt 0.0183 0.1677
vt 0.0183 0.1822
vt 0.0362 0.2020
vt 0.0183 0.2020
vt 0.0364 0.2245
vt 0.0183 0.2245
vt 0.0379 0.2499
vt 0.0183 0.2499
vt 0.2455 0.2026
vt 0.2455 0.2251
vt 0.2249 0.2251
vt 0.2265 0.2026
vt 0.1974 0.2011
vt 0.2291 0.1828
vt 0.2023 0.1758
vt 0.2297 0.1683
vt 0.2056 0.1586
vt 0.2316 0.1429
vt 0.2096 0.1428
vt 0.1581 0.1422
vt 0.1799 0.1491
vt 0.1257 0.1941
vt 0.1352 0.1945
vt 0.1258 0.1641
vt 0.1400 0.1644
vt 0.1258 0.1320
vt 0.1421 0.1340
vt 0.1096 0.1939
vt 0.1111 0.1644
vt 0.1099 0.1365
vt 0.1566 0.1973
vt 0.1551 0.1651
vt 0.0933 0.1963
vt 0.0958 0.1675
vt 0.0761 0.1536
vt 0.0934 0.1494
vt 0.1751 0.1709
vt 0.1749 0.1995
vt 0.1989 0.2505
vt 0.1981 0.2251
vt 0.0673 0.1448
vt 0.2455 0.1683
vt 0.2455 0.1424
vt 0.2455 0.1828
vt 0.2231 0.2505
vt 0.2455 0.2505
vt 0.0591 0.2499
vt 0.2476 0.0722
vt 0.2476 0.0701
vt 0.2287 0.0498
vt 0.2476 0.0678
vt 0.2476 0.0660
vt 0.2476 0.0771
vt 0.2476 0.0747
vt 0.2476 0.0629
vt 0.2476 0.0606
vt 0.2476 0.0642
vt 0.2476 0.0580
vt 0.2476 0.0554
vt 0.2476 0.0525
vt 0.2476 0.0496
vt 0.2455 0.1424
vt 0.1421 0.1340
vt 0.2096 0.1428
vt 0.0673 0.1448
vt 0.1581 0.1422
vt 0.1099 0.1365
vt 0.0380 0.1429
vt 0.2316 0.1429
vt 0.0934 0.1494
vt 0.1258 0.1320
vn -0.0199 0.9977 -0.0647
vn -0.0198 0.9977 -0.0647
vn 0.9683 -0.0302 -0.2481
vn 0.9739 -0.0257 -0.2256
vn 0.9814 0.0142 0.1913
vn 0.9466 0.0072 0.3222
vn 0.7648 0.0332 0.6435
vn 0.6872 -0.0032 0.7265
vn 0.2837 0.0313 0.9584
vn 0.1760 -0.0184 0.9842
vn 0.5271 0.1437 0.8375
vn 0.4273 0.3850 0.8180
vn 0.1584 0.1761 0.9715
vn -0.0225 0.3930 0.9193
vn -0.3792 0.1728 0.9090
vn -0.4521 0.3799 0.8070
vn -0.7039 0.1387 0.6966
vn -0.7672 0.2986 0.5677
vn 0.7622 -0.1230 -0.6356
vn 0.6996 -0.1702 -0.6940
vn 0.4146 -0.1674 -0.8945
vn 0.4044 -0.1936 -0.8939
vn 0.0531 -0.1711 -0.9838
vn -0.5012 -0.1176 -0.8573
vn -0.5152 -0.1303 -0.8471
vn -0.7991 -0.0937 -0.5939
vn -0.8506 -0.0947 -0.5172
vn -0.9920 -0.0786 -0.0991
vn -0.9877 -0.1218 -0.0976
vn -0.8989 -0.0535 0.4349
vn 0.7438 0.2890 0.6027
vn 0.8586 0.0396 0.5111
vn 0.9775 0.1947 0.0818
vn 0.9896 0.1068 0.0960
vn 0.8986 0.0405 -0.4369
vn -0.9658 0.1958 0.1699
vn -0.9545 0.1663 -0.2476
vn -0.9721 -0.0231 -0.2334
vn -0.7722 0.0896 -0.6291
vn -0.6869 0.0044 -0.7267
vn -0.3329 0.0777 -0.9397
vn -0.1699 0.0178 -0.9853
vn -0.4268 -0.0641 0.9021
vn -0.4255 -0.0124 0.9049
vn -0.1499 -0.1453 -0.9780
vn 0.4308 0.0624 -0.9003
vn 0.4192 0.0871 -0.9037
vn -0.9517 0.0215 0.3063
vn -0.9017 -0.0337 0.4311
vn 0.8835 0.1529 -0.4428
vn -0.9866 -0.0857 -0.1387
vn -0.7237 -0.1363 -0.6765
vn -0.4117 -0.1657 -0.8962
vn 0.1239 -0.1739 -0.9769
vn 0.5057 -0.1550 -0.8487
vn 0.8004 -0.1189 -0.5876
vn 0.9571 -0.0841 -0.2774
vn 0.9778 -0.0446 0.2046
vn 0.9544 -0.1251 -0.2710
vn 0.9698 -0.1244 0.2099
vn 0.9953 -0.0810 -0.0534
vn 0.9053 -0.0706 0.4189
vn 0.3525 -0.6027 0.7159
vn 0.6492 -0.7012 0.2948
vn 0.8580 -0.1560 0.4893
vn 0.5690 -0.0613 0.8201
vn 0.3846 -0.1043 0.9172
vn 0.8144 -0.0889 0.5735
vn 0.2767 -0.0359 0.9603
vn 0.7079 0.0060 0.7063
vn 0.3297 0.0420 0.9432
vn -0.4342 -0.0195 0.9006
vn -0.3468 -0.0547 0.9363
vn -0.8465 -0.1014 0.5226
vn -0.5159 -0.0896 0.8519
vn -0.8976 -0.0737 0.4347
vn -0.3216 -0.0188 0.9467
vn -0.8440 0.0024 0.5364
vn -0.3111 -0.5116 0.8009
vn -0.7756 -0.5269 0.3476
vn -0.5639 -0.6993 -0.4393
vn -0.9953 -0.0818 0.0515
vn -0.0126 -0.1638 -0.9864
vn -0.4427 -0.1588 -0.8825
vn -0.1026 -0.0296 -0.9943
vn -0.5392 -0.0431 -0.8411
vn -0.1153 -0.4435 -0.8888
vn -0.5423 -0.3852 -0.7467
vn 0.4841 -0.1378 -0.8641
vn 0.5065 -0.0473 -0.8609
vn 0.4950 -0.4334 -0.7531
vn -0.7969 -0.1554 -0.5838
vn -0.8693 -0.0870 -0.4865
vn 0.7152 -0.1444 -0.6839
vn 0.8093 -0.0930 -0.5799
vn 0.9833 -0.1817 0.0052
vn 0.6876 -0.5789 -0.4382
vn -0.9945 -0.0773 -0.0705
vn -0.9886 -0.1497 -0.0140
vn -0.9134 -0.0748 0.4001
vn 0.8027 -0.5964 -0.0068
vn -0.0030 0.9582 -0.2860
vn 0.1325 -0.9827 -0.1296
usemtl PAZ
s 1
f 2/1/1 3/2/1 4/3/2
f 4/3/2 3/2/1 5/4/2
f 4/3/2 5/4/2 6/5/1
f 6/5/1 5/4/2 7/6/1
f 6/5/1 7/6/1 8/7/1
f 8/7/1 7/6/1 9/8/1
f 8/7/1 9/8/1 10/9/2
f 10/9/2 9/8/1 11/10/2
f 10/9/2 11/10/2 12/11/1
f 12/11/1 11/10/2 13/12/1
f 12/11/1 13/12/1 14/13/1
f 14/13/1 13/12/1 15/14/1
f 14/13/1 15/14/1 16/15/2
f 16/15/2 15/14/1 17/16/2
f 16/15/2 17/16/2 18/17/1
f 18/17/1 17/16/2 19/18/1
f 18/17/1 19/18/1 20/19/2
f 20/19/2 19/18/1 21/20/2
f 20/19/2 21/20/2 22/21/1
f 22/21/1 21/20/2 23/22/1
f 22/21/1 23/22/1 24/23/2
f 24/23/2 23/22/1 25/24/1
f 26/25/3 7/6/4 27/26/5
f 27/26/5 7/6/4 5/4/6
f 27/26/5 5/4/6 28/27/7
f 28/27/7 5/4/6 3/2/8
f 28/27/7 3/2/8 29/28/9
f 29/28/9 3/2/8 25/29/10
f 14/13/11 30/30/12 12/11/13
f 12/11/13 30/30/12 31/31/14
f 12/11/13 31/31/14 10/9/15
f 10/9/15 31/31/14 32/32/16
f 10/9/15 32/32/16 8/7/17
f 8/7/17 32/32/16 33/33/18
f 7/6/4 26/25/3 34/34/19
f 7/6/4 34/34/19 9/8/20
f 9/8/20 34/34/19 35/35/21
f 9/8/20 35/35/21 11/10/22
f 11/10/22 35/35/21 13/12/23
f 15/14/24 36/36/25 37/37/26
f 15/14/24 37/37/26 17/16/27
f 17/16/27 37/37/26 38/38/28
f 17/16/27 38/38/28 19/18/29
f 19/18/29 38/38/28 21/20/30
f 30/30/12 14/13/11 39/39/31
f 39/39/31 14/13/11 16/15/32
f 39/39/31 16/15/32 40/40/33
f 40/40/33 16/15/32 18/17/34
f 40/40/33 18/17/34 20/19/35
f 41/41/36 42/42/37 4/3/38
f 4/3/38 42/42/37 43/43/39
f 4/3/38 43/43/39 2/1/40
f 2/1/40 43/43/39 44/44/41
f 2/1/40 44/44/41 24/45/42
f 23/22/43 21/20/30 45/46/44
f 23/22/43 45/46/44 25/24/10
f 25/24/10 45/46/44 29/47/9
f 36/36/25 15/14/24 46/48/45
f 46/48/45 15/14/24 13/12/23
f 46/48/45 13/12/23 35/35/21
f 20/19/35 22/21/46 47/49/47
f 47/49/47 22/21/46 24/23/42
f 47/49/47 24/23/42 44/50/41
f 3/2/1 2/1/1 25/29/1
f 25/29/1 2/1/1 24/51/2
f 8/7/17 33/33/18 6/5/48
f 6/5/48 33/33/18 41/41/36
f 21/20/30 38/38/28 48/52/49
f 48/52/49 45/46/44 21/20/30
f 49/53/50 40/40/33 20/19/35
f 20/19/35 47/49/47 49/53/50
f 41/41/36 4/3/38 6/5/48
f 50/54/51 38/55/28 37/56/26
f 50/54/51 37/56/26 51/57/52
f 51/57/52 37/56/26 36/58/25
f 51/57/52 36/58/25 52/59/53
f 52/59/53 36/58/25 46/60/45
f 52/59/53 46/60/45 53/61/54
f 53/61/54 46/60/45 35/62/21
f 53/61/54 35/62/21 54/63/55
f 54/63/55 35/62/21 34/64/19
f 54/63/55 34/64/19 55/65/56
f 55/65/56 34/64/19 26/66/3
f 55/65/56 26/66/3 56/67/57
f 56/67/57 26/66/3 57/68/58
f 56/67/57 57/68/58 58/69/59
f 58/69/59 57/68/58 59/70/60
f 58/69/59 59/70/60 60/71/61
f 60/71/61 59/70/60 61/72/62
f 63/73/63 62/74/64 64/75/65
f 63/73/63 64/75/65 65/76/66
f 65/76/66 64/75/65 61/72/62
f 65/76/66 61/72/62 66/77/67
f 66/77/67 61/72/62 67/78/68
f 66/77/67 67/78/68 68/79/69
f 68/79/69 67/78/68 69/80/70
f 68/79/69 69/80/70 70/81/71
f 70/81/71 69/80/70 28/82/7
f 70/81/71 28/82/7 29/83/9
f 68/84/69 70/85/71 71/86/72
f 68/84/69 71/86/72 72/87/73
f 72/87/73 71/86/72 73/88/74
f 72/87/73 73/88/74 74/89/75
f 74/89/75 73/88/74 75/90/76
f 74/89/75 75/90/76 76/91/77
f 76/91/77 75/90/76 77/92/78
f 76/91/77 77/92/78 78/93/79
f 78/93/79 77/92/78 79/94/80
f 80/95/81 79/94/80 81/96/82
f 81/96/82 79/94/80 77/92/78
f 81/96/82 77/92/78 75/90/76
f 52/59/53 53/61/54 82/97/83
f 52/59/53 82/97/83 83/98/84
f 83/98/84 82/97/83 84/99/85
f 83/98/84 84/99/85 85/100/86
f 85/100/86 84/99/85 86/101/87
f 85/100/86 86/101/87 87/102/88
f 53/61/54 54/63/55 88/103/89
f 53/61/54 88/103/89 82/97/83
f 82/97/83 88/103/89 89/104/90
f 82/97/83 89/104/90 84/99/85
f 84/99/85 89/104/90 90/105/91
f 84/99/85 90/105/91 86/101/87
f 51/57/52 52/59/53 83/98/84
f 51/57/52 83/98/84 91/106/92
f 91/106/92 83/98/84 85/100/86
f 91/106/92 85/100/86 92/107/93
f 92/107/93 85/100/86 87/102/88
f 92/107/93 87/102/88 80/95/81
f 93/108/94 55/65/56 58/69/59
f 93/108/94 58/69/59 94/109/95
f 94/109/95 58/69/59 60/71/61
f 94/109/95 60/71/61 95/110/96
f 95/110/96 60/71/61 61/72/62
f 95/110/96 61/72/62 64/75/65
f 88/103/89 94/109/95 89/104/90
f 89/104/90 94/109/95 96/111/97
f 89/104/90 96/111/97 90/105/91
f 81/96/82 97/112/98 92/107/93
f 92/107/93 97/112/98 98/113/99
f 92/107/93 98/113/99 91/106/92
f 91/106/92 98/113/99 50/54/51
f 91/106/92 50/54/51 51/57/52
f 48/114/49 38/55/28 50/54/51
f 48/114/49 50/54/51 99/115/100
f 99/115/100 50/54/51 98/113/99
f 99/115/100 98/113/99 73/88/74
f 73/88/74 98/113/99 75/90/76
f 96/111/97 94/109/95 95/110/96
f 96/111/97 95/110/96 100/116/101
f 100/116/101 95/110/96 62/74/64
f 61/72/62 59/70/60 67/78/68
f 67/78/68 59/70/60 57/68/58
f 67/78/68 57/68/58 69/80/70
f 69/80/70 57/68/58 28/82/7
f 65/117/66 76/91/77 63/118/63
f 63/118/63 76/91/77 78/93/79
f 72/87/73 74/89/75 66/119/67
f 66/119/67 74/89/75 76/91/77
f 66/119/67 76/91/77 65/117/66
f 99/115/100 73/88/74 71/86/72
f 99/115/100 71/86/72 48/114/49
f 48/114/49 71/86/72 45/120/44
f 94/109/95 88/103/89 93/108/94
f 93/108/94 88/103/89 54/63/55
f 93/108/94 54/63/55 55/65/56
f 45/120/44 71/86/72 29/121/9
f 29/121/9 71/86/72 70/85/71
f 81/96/82 75/90/76 97/112/98
f 97/112/98 75/90/76 98/113/99
f 81/96/82 92/107/93 80/95/81
f 64/75/65 62/74/64 95/110/96
f 57/68/58 26/66/3 27/122/5
f 27/122/5 28/82/7 57/68/58
f 68/84/69 72/87/73 66/119/67
f 58/69/59 55/65/56 56/67/57
f 42/123/37 41/124/36 1/125/102
f 1/125/102 41/124/36 33/126/18
f 1/125/102 33/126/18 32/127/16
f 44/128/41 43/129/39 1/125/102
f 1/125/102 43/129/39 42/123/37
f 30/130/12 39/131/31 1/125/102
f 30/130/12 1/125/102 31/132/14
f 31/132/14 1/125/102 32/127/16
f 40/133/33 49/134/50 1/125/102
f 1/125/102 49/134/50 47/135/47
f 47/135/47 44/136/41 1/125/102
f 1/125/102 39/131/31 40/133/33
f 63/118/63 78/93/79 101/137/103
f 87/102/88 86/101/87 101/138/103
f 79/94/80 80/95/81 101/139/103
f 100/116/101 62/74/64 101/140/103
f 80/95/81 87/102/88 101/141/103
f 90/105/91 96/111/97 101/142/103
f 62/74/64 63/73/63 101/143/103
f 78/93/79 79/94/80 101/144/103
f 96/111/97 100/116/101 101/145/103
f 86/101/87 90/105/91 101/146/103
