# Blender v2.78 (sub 0) OBJ File: 'Paz.blend'
# www.blender.org
mtllib Skirt.mtl
o PAZ_SKIRT
v -0.835711 6.477612 -0.756399
v -0.677894 6.884649 -0.542169
v -0.510131 6.460053 -0.877522
v -0.211795 6.885935 -0.668870
v -0.224304 6.450621 -0.888811
v 0.385290 6.353377 -0.799501
v 0.083906 6.366836 -0.878300
v 0.053100 6.884639 -0.666932
v 0.012521 6.851223 0.406102
v 0.361064 6.078316 0.531088
v 0.499303 6.853178 0.272785
v 0.627489 6.092962 0.398414
v -0.012520 6.145835 0.582469
v -0.265140 6.855124 0.396870
v -0.337020 6.163652 0.558243
v -0.718437 6.195856 0.471072
v -0.740076 6.869349 0.225971
v 0.486485 6.877460 -0.492260
v -0.030659 5.559884 0.594543
v 0.393116 5.483574 0.607751
v -0.121163 3.747167 0.804806
v 0.443621 3.736949 0.936058
v -0.000845 5.546841 0.662872
v -0.388298 5.574243 0.554205
v -0.054277 3.752870 0.972234
v -0.566507 3.744783 0.752857
v -1.008883 3.808492 0.583862
v -0.561551 3.740346 0.886086
v -0.782199 5.610954 0.430733
v -0.371265 5.563176 0.615205
v -1.028618 3.752835 0.703620
v -0.784809 5.603423 0.477974
v 0.362496 5.494411 0.552239
v 0.331032 3.818957 0.765903
v 0.842400 6.124491 0.124364
v 0.898351 5.526133 0.158265
v 0.642908 5.506526 0.428871
v 1.125116 3.755265 0.446000
v 0.676368 3.757562 0.684693
v 0.919984 6.157492 -0.178716
v 1.336330 3.788054 0.007246
v 0.871423 5.534066 0.157941
v 0.986897 3.768145 0.438537
v 0.708012 5.496166 0.472483
v 0.672480 3.861263 -1.063247
v 0.741284 3.848970 -0.912392
v -1.381965 3.912747 -0.846962
v -1.071314 6.427523 -0.594760
v -1.152274 3.920151 -0.958729
v -0.920997 3.931680 -0.945151
v 0.862763 3.734960 0.761872
v 0.196209 3.869828 -1.137043
v 0.428997 3.873230 -1.087808
v 0.314549 3.864234 -0.978708
v 1.235734 3.782920 0.026914
v 1.312361 3.811768 -0.230194
v 0.886950 6.254294 -0.494454
v 1.281068 3.829870 -0.486608
v -1.180986 6.333022 -0.320789
v -1.548171 3.920923 -0.472001
v -1.216427 3.919641 -0.804518
v -0.359359 3.923374 -1.167502
v -0.061618 3.896400 -1.162465
v -0.554306 3.931733 -0.985175
v -0.885015 3.933360 -1.078920
v -1.118585 3.926017 -1.024010
v 0.850467 3.848516 -0.966150
v 0.661500 6.333757 -0.694892
v 1.082315 3.846856 -0.691959
v -0.161587 3.896269 -1.005485
v 1.054175 3.839232 -0.852959
v 1.215438 3.824793 -0.359615
v 1.157279 3.832965 -0.710765
v -0.742371 3.939705 -1.160241
v -0.480758 3.935452 -1.145501
v -1.452059 3.918026 -0.461658
v -1.372165 3.853630 0.459654
v -1.319452 3.877430 0.331942
v -1.107965 5.592609 0.247032
v -1.058481 5.601884 0.216941
v -0.988659 6.173700 0.283739
v -1.478348 3.911982 0.025471
v -1.136478 6.228018 -0.010583
v -1.585321 3.903166 0.151604
v -0.908091 6.884367 -0.177686
v 0.697075 6.866693 -0.127478
vt 0.9542 0.6971
vt 0.9550 0.7254
vt 0.9416 0.6971
vt 0.9289 0.7254
vt 0.9289 0.6971
vt 0.9008 0.6971
vt 0.9157 0.6971
vt 0.9213 0.7254
vt 0.8080 0.7254
vt 0.8208 0.6971
vt 0.8261 0.7254
vt 0.8303 0.6971
vt 0.8075 0.6971
vt 0.7985 0.7254
vt 0.8006 0.6971
vt 0.7916 0.6971
vt 0.7791 0.7254
vt 0.8115 0.6971
vt 0.8183 0.6971
vt 0.8731 0.7250
vt 0.8115 0.6496
vt 0.8209 0.6496
vt 0.8139 0.5071
vt 0.8209 0.5071
vt 0.8115 0.6496
vt 0.8005 0.6496
vt 0.8116 0.5071
vt 0.8034 0.5071
vt 0.7940 0.5071
vt 0.8005 0.5071
vt 0.7931 0.6496
vt 0.8005 0.6496
vt 0.9547 0.7283
vt 0.9463 0.7287
vt 0.9525 0.7330
vt 0.9505 0.7331
vt 0.9518 0.7345
vt 0.7573 0.7340
vt 0.7578 0.7324
vt 0.7566 0.7323
vt 0.7594 0.7276
vt 0.7544 0.7273
vt 0.7637 0.7340
vt 0.7641 0.7325
vt 0.7628 0.7325
vt 0.7652 0.7280
vt 0.7602 0.7279
vt 0.9775 0.7295
vt 0.9556 0.7286
vt 0.9631 0.7330
vt 0.9576 0.7327
vt 0.9583 0.7341
vt 0.8456 0.6971
vt 0.8338 0.6971
vt 0.8458 0.6496
vt 0.8362 0.6496
vt 0.8464 0.5071
vt 0.8386 0.5071
vt 0.8560 0.6971
vt 0.8560 0.5071
vt 0.8458 0.6496
vt 0.8482 0.5071
vt 0.8338 0.6496
vt 0.7804 0.7276
vt 0.7747 0.7276
vt 0.7801 0.7336
vt 0.7787 0.7336
vt 0.7800 0.7356
vt 0.8424 0.7352
vt 0.8467 0.7271
vt 0.8439 0.7271
vt 0.9700 0.5071
vt 0.9700 0.6971
vt 0.9634 0.5071
vt 0.9560 0.5071
vt 0.7740 0.7280
vt 0.7658 0.7279
vt 0.7732 0.7327
vt 0.7711 0.7327
vt 0.7729 0.7343
vt 0.9155 0.5071
vt 0.9073 0.5071
vt 0.9008 0.5071
vt 0.8495 0.7356
vt 0.8531 0.7273
vt 0.8510 0.7273
vt 0.8589 0.5071
vt 0.8650 0.5071
vt 0.8731 0.6971
vt 0.8734 0.5071
vt 0.9836 0.6971
vt 0.9835 0.5071
vt 0.9700 0.5071
vt 0.9298 0.5071
vt 0.9232 0.5071
vt 0.9158 0.5071
vt 0.9416 0.5071
vt 0.9480 0.5071
vt 0.9557 0.5071
vt 0.9008 0.5071
vt 0.8937 0.5071
vt 0.8857 0.6971
vt 0.8875 0.5071
vt 0.8592 0.7282
vt 0.8573 0.7278
vt 0.8563 0.7359
vt 0.8382 0.7269
vt 0.8338 0.7273
vt 0.8340 0.7348
vt 0.8240 0.7270
vt 0.8179 0.7271
vt 0.8207 0.7345
vt 0.7987 0.7344
vt 0.7966 0.7271
vt 0.7875 0.7270
vt 0.8857 0.5071
vt 0.8789 0.5071
vt 0.8734 0.5071
vt 0.9416 0.5071
vt 0.9342 0.5071
vt 0.9298 0.5071
vt 0.8850 0.7362
vt 0.8819 0.7296
vt 0.8726 0.7298
vt 0.9093 0.7291
vt 0.8838 0.7297
vt 0.9095 0.7362
vt 0.8625 0.7360
vt 0.8653 0.7290
vt 0.8614 0.7283
vt 0.8720 0.7297
vt 0.8673 0.7293
vt 0.8722 0.7360
vt 0.9443 0.7284
vt 0.9302 0.7286
vt 0.9447 0.7335
vt 0.9412 0.7335
vt 0.9448 0.7352
vt 0.8209 0.6496
vt 0.8245 0.5071
vt 0.8338 0.5071
vt 0.7787 0.5071
vt 0.7916 0.5071
vt 0.7789 0.6496
vt 0.7916 0.6496
vt 0.7789 0.6971
vt 0.7661 0.5071
vt 0.7787 0.5071
vt 0.7789 0.6496
vt 0.7661 0.6971
vt 0.7533 0.6971
vt 0.7661 0.5071
vt 0.7532 0.7254
vt 0.8562 0.7254
vt 0.9836 0.7254
vt 0.9273 0.7359
vt 0.9280 0.7288
vt 0.9110 0.7293
vt 0.7530 0.5078
vt 0.7533 0.6972
vn -0.3368 0.2695 -0.9022
vn -0.4399 0.5788 -0.6867
vn -0.0834 0.2845 -0.9551
vn -0.0779 0.4873 -0.8697
vn 0.0856 0.2432 -0.9662
vn 0.3672 0.2504 -0.8958
vn 0.2290 0.1988 -0.9529
vn 0.1861 0.4124 -0.8918
vn 0.1339 0.2489 0.9592
vn 0.4378 0.1787 0.8812
vn 0.6009 0.2695 0.7525
vn 0.7785 0.1589 0.6071
vn 0.0252 0.1675 0.9855
vn -0.1506 0.2605 0.9536
vn -0.1622 0.1465 0.9758
vn -0.3865 0.1676 0.9070
vn -0.6676 0.3420 0.6613
vn 0.5516 0.4599 -0.6959
vn -0.0187 0.0686 0.9975
vn -0.0249 0.1127 0.9933
vn -0.1157 0.1458 0.9825
vn -0.2199 0.1741 0.9599
vn -0.1981 0.1074 0.9743
vn -0.3065 0.1090 0.9456
vn -0.3242 0.1547 0.9333
vn -0.3918 0.1370 0.9098
vn -0.5399 0.1384 0.8303
vn -0.4648 0.1573 0.8713
vn -0.4487 0.0991 0.8882
vn -0.3394 0.0877 0.9365
vn 0.9872 -0.1168 0.1084
vn 0.9902 -0.1194 0.0719
vn 0.9913 -0.1165 0.0604
vn 0.9926 -0.1162 0.0363
vn 0.9931 -0.1108 0.0372
vn 0.9134 -0.0366 -0.4055
vn 0.9097 -0.0675 -0.4098
vn 0.9154 -0.0746 -0.3956
vn 0.9159 -0.0936 -0.3904
vn 0.9260 -0.0888 -0.3669
vn 0.4378 0.1788 0.8811
vn 0.8714 -0.0414 -0.4888
vn 0.8524 -0.0574 -0.5197
vn 0.8404 -0.0783 -0.5363
vn 0.8104 -0.0891 -0.5791
vn 0.9931 -0.1097 -0.0406
vn 0.9792 -0.1177 -0.1654
vn 0.9731 -0.1056 -0.2047
vn 0.9731 -0.1056 -0.2048
vn 0.9531 -0.1025 -0.2847
vn 0.9561 -0.0812 -0.2817
vn 0.8278 0.2038 0.5226
vn 0.7372 0.1214 0.6647
vn 0.9786 0.0825 0.1884
vn 0.5928 0.1709 0.7870
vn 0.4657 0.1368 0.8743
vn 0.9774 0.2068 -0.0448
vn 0.7873 0.1431 0.5997
vn 0.6649 0.1133 0.7383
vn 0.6648 0.1133 0.7383
vn 0.7649 0.1496 0.6266
vn 0.2310 0.1236 0.9651
vn 0.0388 -0.1554 -0.9871
vn 0.0019 -0.1573 -0.9875
vn -0.0003 -0.1240 -0.9923
vn -0.0199 -0.1082 -0.9939
vn -0.0048 -0.0570 -0.9984
vn -0.9045 -0.1466 0.4006
vn -0.4368 0.1430 -0.8881
vn -0.8062 0.3423 -0.4825
vn -0.3345 0.1218 -0.9345
vn 0.0549 0.0720 -0.9959
vn 0.3675 -0.1193 -0.9224
vn 0.4563 -0.1160 -0.8822
vn 0.4897 -0.0870 -0.8675
vn 0.4563 -0.1160 -0.8823
vn 0.2041 0.1100 -0.9727
vn 0.3208 0.1127 -0.9404
vn 0.4932 0.1090 -0.8630
vn -0.7988 -0.0974 0.5936
vn 0.9426 0.1511 0.2979
vn 0.9858 0.1614 0.0465
vn 0.9100 0.2746 -0.3107
vn 0.9813 0.1592 -0.1085
vn -0.9539 0.2595 0.1505
vn -0.8410 0.1343 -0.5241
vn -0.7042 0.0995 -0.7030
vn 0.0266 0.1082 -0.9938
vn 0.1812 0.1003 -0.9783
vn 0.4429 0.0767 -0.8933
vn 0.2727 0.0362 -0.9614
vn -0.1032 0.0996 -0.9897
vn -0.2308 0.1268 -0.9647
vn 0.4818 0.1469 -0.8639
vn 0.5447 0.1372 -0.8273
vn 0.6270 0.2454 -0.7394
vn 0.7578 0.1275 -0.6400
vn -0.6371 -0.0508 0.7691
vn -0.9704 -0.1640 0.1774
vn -0.8768 -0.1440 -0.4589
vn 0.9774 0.2068 -0.0449
vn -0.1854 -0.1092 -0.9766
vn 0.8022 0.1627 -0.5745
vn 0.8528 0.1475 -0.5009
vn 0.9795 0.1236 -0.1593
vn 0.0577 0.1060 -0.9927
vn 0.1456 0.0893 -0.9853
vn 0.4065 0.0516 -0.9122
vn -0.8063 0.3422 -0.4825
vn -0.2452 -0.0667 0.9672
vn -0.1082 -0.0458 0.9931
vn -0.8073 0.0563 0.5875
vn -0.9539 0.2596 0.1505
vn -0.6817 -0.0192 0.7314
vn -0.3687 -0.0564 0.9278
vn 0.9263 -0.0962 0.3644
vn 0.3513 0.0192 0.9361
vn -0.2209 0.0555 0.9737
vn -0.2724 0.0379 0.9614
vn -0.5842 0.1290 0.8013
vn 0.2239 0.0776 0.9715
vn 0.1288 0.1427 0.9813
vn 0.0335 0.1649 0.9857
vn -0.7167 0.1666 0.6771
vn -0.7168 0.1666 0.6771
vn -0.6508 0.0837 0.7546
vn -0.9238 0.1576 0.3489
vn -0.9505 0.1757 0.2561
vn -0.8894 0.2666 0.3714
vn -0.9865 0.1639 -0.0015
vn -0.8692 0.4944 0.0056
vn 0.9281 0.3656 0.0700
vn 0.7622 -0.1026 0.6392
vn -0.9865 0.1638 -0.0016
usemtl PAZ
s 1
f 1/1/1 2/2/2 3/3/3
f 3/3/3 2/2/2 4/4/4
f 3/3/3 4/4/4 5/5/5
f 6/6/6 7/7/7 8/8/8
f 8/8/8 7/7/7 5/5/5
f 8/8/8 5/5/5 4/4/4
f 9/9/9 10/10/10 11/11/11
f 11/11/11 10/10/10 12/12/12
f 13/13/13 9/9/9 14/14/14
f 13/13/13 14/14/14 15/15/15
f 15/15/15 14/14/14 16/16/16
f 17/17/17 16/16/16 14/14/14
f 13/18/13 10/19/10 9/9/9
f 18/20/18 6/6/6 8/8/8
f 13/18/13 19/21/19 20/22/20
f 20/22/20 19/21/19 21/23/21
f 20/22/20 21/23/21 22/24/22
f 10/19/10 13/18/13 20/22/20
f 13/13/13 15/15/15 23/25/23
f 23/25/23 15/15/15 24/26/24
f 23/25/23 24/26/24 25/27/25
f 25/27/25 24/26/24 26/28/26
f 27/29/27 28/30/28 29/31/29
f 29/31/29 28/30/28 30/32/30
f 29/31/29 30/32/30 16/16/16
f 16/16/16 30/32/30 15/15/15
f 31/33/31 27/34/32 32/35/33
f 32/35/33 27/34/32 29/36/34
f 32/35/33 29/36/34 16/37/35
f 13/38/36 23/39/37 19/40/38
f 19/40/38 23/39/37 25/41/39
f 19/40/38 25/41/39 21/42/40
f 10/43/41 20/44/42 33/45/43
f 33/45/43 20/44/42 22/46/44
f 33/45/43 22/46/44 34/47/45
f 28/48/46 26/49/47 30/50/48
f 30/50/49 26/49/47 24/51/50
f 30/50/49 24/51/50 15/52/51
f 35/53/52 12/54/12 36/55/53
f 36/55/53 12/54/12 37/56/54
f 36/55/53 37/56/54 38/57/55
f 38/57/55 37/56/54 39/58/56
f 40/59/57 35/53/52 41/60/58
f 41/60/58 35/53/52 42/61/59
f 41/60/58 42/61/60 43/62/61
f 12/12/12 10/10/10 44/63/62
f 38/64/63 43/65/64 36/66/65
f 36/66/65 43/65/64 42/67/66
f 36/66/65 42/67/66 35/68/67
f 6/69/68 45/70/68 46/71/68
f 47/72/69 48/73/70 49/74/71
f 49/74/71 48/73/70 1/1/1
f 49/74/71 1/1/1 50/75/72
f 51/76/73 39/77/74 44/78/75
f 44/78/75 39/77/76 37/79/54
f 44/78/75 37/79/54 12/80/12
f 52/81/77 7/7/7 53/82/78
f 53/82/78 7/7/7 6/6/6
f 53/82/78 6/6/6 46/83/79
f 7/84/80 52/85/80 54/86/80
f 40/59/57 55/87/81 56/88/82
f 40/59/57 56/88/82 57/89/83
f 57/89/83 56/88/82 58/90/84
f 59/91/85 48/73/70 60/92/86
f 60/92/86 48/73/70 61/93/87
f 62/94/88 5/5/5 63/95/89
f 63/95/89 5/5/5 7/7/7
f 63/95/89 7/7/7 54/96/90
f 3/3/3 64/97/91 65/98/92
f 3/3/3 65/98/92 1/1/1
f 1/1/1 65/98/92 66/99/93
f 45/100/94 6/6/6 67/101/95
f 67/101/95 6/6/6 68/102/96
f 67/101/95 68/102/96 69/103/97
f 62/104/98 70/105/98 5/106/98
f 71/107/99 69/108/99 68/109/99
f 58/110/100 72/111/100 57/112/100
f 40/113/101 41/114/102 55/115/102
f 71/116/103 68/102/96 73/117/104
f 73/117/104 68/102/96 57/89/83
f 73/117/104 57/89/83 72/118/105
f 74/119/106 3/3/3 75/120/107
f 75/120/107 3/3/3 5/5/5
f 75/120/107 5/5/5 70/121/108
f 48/122/109 47/123/110 61/124/110
f 60/125/111 76/126/112 59/127/113
f 3/128/114 74/129/114 64/130/114
f 66/131/115 50/132/115 1/133/115
f 77/134/116 78/135/117 79/136/118
f 79/136/118 78/135/117 80/137/119
f 79/136/118 80/137/119 81/138/120
f 10/10/10 33/139/121 44/63/62
f 44/63/62 33/139/121 34/140/122
f 44/63/62 34/140/122 51/141/123
f 78/142/117 31/143/124 80/144/119
f 80/144/119 31/143/125 32/145/126
f 80/144/119 32/145/126 81/146/120
f 81/146/120 32/145/126 16/16/16
f 81/146/120 16/16/16 17/17/17
f 82/147/127 77/148/128 79/149/118
f 82/147/127 79/149/118 83/150/129
f 83/150/129 79/149/118 81/146/120
f 83/150/129 81/146/120 17/17/17
f 59/151/85 84/152/130 83/150/129
f 59/151/85 83/150/129 85/153/131
f 85/153/131 83/150/129 17/17/17
f 86/154/132 40/59/57 57/89/83
f 86/154/132 57/89/83 18/20/18
f 18/20/18 57/89/83 68/102/96
f 18/20/18 68/102/96 6/6/6
f 11/11/11 12/54/12 35/53/52
f 11/11/11 35/53/52 86/154/132
f 86/154/132 35/53/52 40/59/57
f 2/2/2 1/1/1 48/73/70
f 2/2/2 48/73/70 85/155/131
f 85/155/131 48/73/70 59/91/85
f 83/156/133 84/157/133 82/158/133
f 76/159/112 84/152/134 59/160/113
