# Blender v2.78 (sub 0) OBJ File: ''
# www.blender.org
mtllib Under Hair.mtl
o PAZ_HAIR.002
v -0.237890 1.926936 -0.656925
v -0.235790 2.088896 -0.596483
v -0.146663 1.935603 -0.657426
v -0.094282 2.077667 -0.586899
v -0.074309 1.916306 -0.635059
v 0.043731 2.038960 -0.541412
v 0.020747 1.904848 -0.593622
v 0.149411 1.943927 -0.471297
v 0.110674 1.851322 -0.536781
v 0.235473 1.820719 -0.392159
v 0.180246 1.706319 -0.491114
v 0.201148 1.546383 -0.441197
v 0.285917 1.522303 -0.272115
v 0.364939 1.547637 -0.075326
v -0.052352 2.248079 -0.016814
v -0.210996 2.241141 -0.263697
v -0.189424 2.259425 0.001137
v -0.168542 2.193319 0.239352
v -0.331367 2.242258 0.006034
v -0.615016 1.692091 -0.425352
v -0.657274 1.804747 -0.318336
v -0.559084 1.839339 -0.481398
v -0.589808 1.930703 -0.410169
v -0.481670 1.895860 -0.552076
v -0.621741 1.531664 -0.373151
v -0.676686 1.505082 -0.192516
v -0.723170 1.528171 0.014651
v -0.707658 1.621368 0.138283
v -0.500521 2.029223 -0.496407
v -0.395177 1.910565 -0.608526
v -0.328211 1.932355 -0.642414
v -0.373314 2.072677 -0.563825
v 0.313403 1.380153 -0.212185
v 0.264288 1.373469 -0.421143
v 0.365067 1.654860 0.051162
v 0.286270 1.963066 -0.159757
v 0.195845 2.088608 -0.234332
v 0.074978 2.177988 -0.258825
v -0.065863 2.229668 -0.270341
v 0.276429 2.005222 0.006204
v 0.197941 2.121547 -0.051869
v 0.078697 2.202505 -0.035011
v -0.358692 2.223507 -0.246375
v -0.465491 2.189579 0.009128
v -0.373048 2.169153 0.259289
v -0.546735 2.093596 0.195392
v -0.398206 1.786647 0.517756
v -0.659105 1.678872 0.341334
v -0.644252 1.983612 0.080953
v -0.684542 1.922557 -0.083039
v 0.192408 2.111622 0.135565
v 0.031464 2.177989 0.226268
v -0.583015 2.102283 0.011283
v -0.612284 2.064758 -0.168926
v 0.345161 1.706321 0.260845
v -0.136042 1.820267 0.551660
v 0.118024 1.795883 0.475068
v -0.496832 2.164342 -0.212463
v -0.623860 1.276148 -0.144179
v -0.588319 1.263846 -0.360923
v -0.084741 2.057910 0.459396
v 0.034844 2.168956 0.230025
v -0.168530 2.193224 0.239297
v 0.183879 2.097135 0.188443
v -0.057839 2.148386 0.378519
v 0.065132 2.226705 0.095323
vt 0.1055 0.9528
vt 0.1055 0.9284
vt 0.1284 0.9544
vt 0.1359 0.9274
vt 0.1536 0.9473
vt 0.1639 0.9179
vt 0.1743 0.9428
vt 0.1848 0.9053
vt 0.1970 0.9350
vt 0.2068 0.8920
vt 0.2219 0.9295
vt 0.2453 0.9253
vt 0.2522 0.8842
vt 0.2591 0.8429
vt 0.1212 0.8513
vt 0.1055 0.8853
vt 0.1055 0.8515
vt 0.1055 0.8254
vt 0.1212 0.8513
vt 0.2219 0.9295
vt 0.2068 0.8920
vt 0.1970 0.9350
vt 0.1848 0.9053
vt 0.1743 0.9428
vt 0.2453 0.9253
vt 0.2522 0.8842
vt 0.2591 0.8429
vt 0.2334 0.7862
vt 0.1639 0.9179
vt 0.1536 0.9473
vt 0.1284 0.9544
vt 0.1359 0.9274
vt 0.3029 0.8487
vt 0.3026 0.9270
vt 0.2334 0.7862
vt 0.1828 0.8536
vt 0.1628 0.8670
vt 0.1454 0.8768
vt 0.1260 0.8832
vt 0.1796 0.8376
vt 0.1566 0.8455
vt 0.1376 0.8480
vt 0.1260 0.8832
vt 0.1376 0.8480
vt 0.1324 0.8221
vt 0.1590 0.8273
vt 0.1450 0.7654
vt 0.1943 0.7678
vt 0.1796 0.8376
vt 0.1828 0.8536
vt 0.1590 0.8273
vt 0.1324 0.8221
vt 0.1566 0.8455
vt 0.1628 0.8670
vt 0.1943 0.7678
vt 0.1060 0.7658
vt 0.1450 0.7654
vt 0.1454 0.8768
vt 0.3029 0.8487
vt 0.3026 0.9270
vt 0.5448 0.7205
vt 0.5444 0.7016
vt 0.7174 0.7237
vt 0.6261 0.3846
vt 0.4365 0.3728
vt 0.4365 0.3832
vn -0.0834 0.3494 -0.9333
vn -0.0829 0.3837 -0.9197
vn 0.1390 0.3626 -0.9215
vn 0.2772 0.3465 -0.8962
vn 0.3806 0.2946 -0.8766
vn 0.5582 0.4886 -0.6706
vn 0.5660 0.2375 -0.7895
vn 0.7631 0.3030 -0.5709
vn 0.7203 0.1874 -0.6678
vn 0.8945 0.1132 -0.4325
vn 0.8334 0.0717 -0.5480
vn 0.8939 0.0721 -0.4424
vn 0.9041 0.1287 -0.4075
vn 0.9489 0.0969 -0.3002
vn 0.1716 0.9826 0.0707
vn -0.0342 0.9821 -0.1851
vn -0.0108 0.9948 0.1014
vn 0.0187 0.8941 0.4476
vn -0.1972 0.9751 0.1010
vn -0.9141 0.0404 -0.4035
vn -0.9565 0.0746 -0.2822
vn -0.8264 0.1597 -0.5399
vn -0.8571 0.2654 -0.4416
vn -0.6960 0.2150 -0.6851
vn -0.9484 -0.0856 -0.3053
vn -0.9609 -0.1106 -0.2539
vn -0.9856 -0.0845 -0.1464
vn -0.9877 0.1482 0.0506
vn -0.6785 0.4623 -0.5709
vn -0.5296 0.2783 -0.8013
vn -0.3012 0.3547 -0.8851
vn -0.4327 0.3338 -0.8375
vn 0.9678 -0.1149 -0.2238
vn 0.9279 0.1425 -0.3444
vn 0.9738 0.2005 -0.1069
vn 0.9167 0.3242 -0.2337
vn 0.7649 0.5838 -0.2721
vn 0.4799 0.8319 -0.2787
vn 0.2744 0.8546 -0.4408
vn 0.2113 0.9405 -0.2661
vn -0.0516 0.9054 -0.4213
vn 0.9018 0.4316 0.0215
vn 0.6914 0.7208 -0.0483
vn 0.4356 0.9001 0.0136
vn -0.2892 0.9303 -0.2255
vn -0.4673 0.8798 0.0869
vn -0.3047 0.9219 0.2392
vn -0.6754 0.6112 0.4126
vn -0.2255 0.5839 0.7798
vn -0.4364 0.5024 0.7464
vn -0.8427 0.3334 0.4228
vn -0.9097 0.3799 0.1675
vn -0.9611 0.2620 -0.0868
vn 0.7036 0.6442 0.3000
vn 0.3305 0.8089 0.4862
vn -0.7246 0.6858 0.0672
vn -0.8312 0.5361 -0.1473
vn 0.8806 0.3772 0.2867
vn 0.0529 0.6124 0.7888
vn 0.5312 0.5243 0.6656
vn -0.5555 0.8081 -0.1960
vn -0.3747 0.8420 -0.3882
vn -0.9481 -0.2858 -0.1392
vn -0.9536 -0.2126 -0.2129
vn 0.0410 0.9485 0.3140
vn 0.1191 0.8604 0.4955
vn 0.1409 0.8476 0.5115
vn 0.4990 0.7609 0.4149
vn 0.4900 0.7614 0.4246
vn 0.4924 0.7513 0.4395
usemtl PAZ_HAIR
s 1
f 1/1/1 2/2/2 3/3/3
f 3/3/3 2/2/2 4/4/4
f 3/3/3 4/4/4 5/5/5
f 5/5/5 4/4/4 6/6/6
f 5/5/5 6/6/6 7/7/7
f 7/7/7 6/6/6 8/8/8
f 7/7/7 8/8/8 9/9/9
f 9/9/9 8/8/8 10/10/10
f 9/9/9 10/10/10 11/11/11
f 12/12/12 11/11/11 10/10/10
f 12/12/12 10/10/10 13/13/13
f 13/13/13 10/10/10 14/14/14
f 15/15/15 16/16/16 17/17/17
f 15/15/15 17/17/17 18/18/18
f 18/18/18 17/17/17 19/19/19
f 16/16/16 19/19/19 17/17/17
f 20/20/20 21/21/21 22/22/22
f 22/22/22 21/21/21 23/23/23
f 22/22/22 23/23/23 24/24/24
f 20/20/20 25/25/25 21/21/21
f 21/21/21 25/25/25 26/26/26
f 21/21/21 26/26/26 27/27/27
f 27/27/27 28/28/28 21/21/21
f 24/24/24 29/29/29 30/30/30
f 2/2/2 1/1/1 31/31/31
f 2/2/2 31/31/31 32/32/32
f 32/32/32 31/31/31 30/30/30
f 32/32/32 30/30/30 29/29/29
f 24/24/24 23/23/23 29/29/29
f 14/14/14 33/33/33 34/34/34
f 14/14/14 34/34/34 13/13/13
f 13/13/13 34/34/34 12/12/12
f 35/35/35 14/14/14 10/10/10
f 35/35/35 10/10/10 36/36/36
f 36/36/36 10/10/10 8/8/8
f 36/36/36 8/8/8 37/37/37
f 37/37/37 8/8/8 6/6/6
f 37/37/37 6/6/6 38/38/38
f 38/38/38 6/6/6 4/4/39
f 38/38/38 4/4/39 39/39/40
f 39/39/40 4/4/39 2/2/41
f 39/39/40 2/2/41 16/16/16
f 40/40/42 36/36/36 37/37/37
f 40/40/42 37/37/37 41/41/43
f 41/41/43 37/37/37 38/38/38
f 41/41/43 38/38/38 42/42/44
f 42/42/44 38/38/38 39/39/40
f 42/42/44 39/39/40 15/15/15
f 19/19/19 43/43/45 44/44/46
f 19/19/19 44/44/46 45/45/47
f 45/45/47 44/44/46 46/46/48
f 45/45/49 46/46/48 47/47/50
f 47/47/50 46/46/48 48/48/51
f 48/48/51 46/46/48 49/49/52
f 48/48/51 49/49/52 28/28/28
f 28/28/28 49/49/52 50/50/53
f 28/28/28 50/50/53 21/21/21
f 21/21/21 50/50/53 23/23/23
f 40/40/42 41/41/43 51/51/54
f 51/51/54 41/41/43 42/42/44
f 51/51/54 42/42/44 52/52/55
f 52/52/55 42/42/44 15/15/15
f 46/46/48 44/44/46 53/53/56
f 46/46/48 53/53/56 49/49/52
f 49/49/52 53/53/56 54/54/57
f 49/49/52 54/54/57 50/50/53
f 35/35/35 36/36/36 40/40/42
f 35/35/35 40/40/42 55/55/58
f 55/55/58 40/40/42 51/51/54
f 56/56/59 57/57/60 52/52/55
f 56/56/59 52/52/55 18/18/18
f 18/18/18 52/52/55 15/15/15
f 47/47/50 56/56/59 45/45/49
f 45/45/49 56/56/59 18/18/18
f 45/45/47 18/18/18 19/19/19
f 55/55/58 51/51/54 57/57/60
f 57/57/60 51/51/54 52/52/55
f 16/16/16 15/15/15 39/39/40
f 53/53/56 58/58/61 54/54/57
f 23/23/23 54/54/57 29/29/29
f 29/29/29 58/58/61 32/32/62
f 32/32/62 43/43/45 2/2/41
f 59/59/63 27/27/27 60/60/64
f 60/60/64 27/27/27 26/26/26
f 60/60/64 26/26/26 25/25/25
f 43/43/45 58/58/61 44/44/46
f 44/44/46 58/58/61 53/53/56
f 54/54/57 23/23/23 50/50/53
f 58/58/61 29/29/29 54/54/57
f 43/43/45 32/32/62 58/58/61
f 16/16/16 2/2/41 43/43/45
f 43/43/45 19/19/19 16/16/16
f 63/61/65 61/62/66 62/63/67
f 65/64/68 64/65/69 66/66/70
o PAZ_HAIR.001
v -0.211750 2.219930 -0.277407
v -0.189860 2.252382 -0.005671
v -0.050645 2.240711 -0.023913
v -0.169561 2.185968 0.225443
v 0.032102 2.161451 0.195304
v 0.082774 1.781285 0.471051
v 0.242164 1.747570 0.353124
v 0.042767 1.353479 0.488326
v 0.186856 1.326416 0.357443
v 0.077737 1.077860 0.257914
v 0.286918 1.333117 0.208583
v 0.157281 1.063202 0.111086
v 0.367223 1.640700 0.056553
v 0.228566 1.820594 -0.391587
v 0.264868 1.922310 -0.185341
v 0.149275 1.951055 -0.471399
v 0.179809 2.052866 -0.250768
v 0.037345 2.032017 -0.533620
v 0.077833 2.155605 -0.272025
v -0.093564 2.070853 -0.579695
v -0.071384 2.208682 -0.281641
v -0.235073 2.082080 -0.589279
v -0.650367 1.804871 -0.318908
v -0.707072 1.621483 0.145388
v -0.655900 1.905838 -0.109202
v -0.589944 1.937829 -0.410271
v -0.587432 2.039141 -0.187323
v -0.492699 2.022533 -0.489790
v -0.494046 2.145374 -0.224735
v -0.372597 2.065861 -0.556621
v -0.350417 2.203690 -0.258567
v -0.237304 1.927050 -0.649820
v -0.146093 1.935713 -0.650519
v -0.066248 1.916654 -0.621618
v 0.035850 1.898193 -0.580650
v 0.093967 1.780204 -0.583557
v -0.329677 2.235722 -0.000839
v -0.372435 2.154215 0.228756
v -0.363599 1.773301 0.507963
v -0.538890 1.733596 0.417710
v -0.475797 1.314560 0.412238
v -0.660878 1.666414 0.288327
v -0.592015 1.317394 0.281264
v -0.327642 1.932466 -0.635507
v -0.400929 1.910666 -0.593944
v -0.494193 1.888710 -0.536820
v -0.547768 1.768723 -0.530491
v 0.272142 1.995075 0.002493
v 0.188638 2.104870 -0.048619
v 0.082312 2.194071 -0.041280
v -0.128815 1.350913 0.537484
v -0.028133 1.083908 0.336895
v -0.138102 1.082245 0.367049
v -0.146288 0.952137 0.260760
v -0.251517 1.079911 0.355367
v -0.236897 0.941767 0.251314
v -0.634812 1.978851 0.077491
v -0.564789 2.091392 0.013683
v -0.468846 2.184210 0.004296
v -0.138198 1.812695 0.523936
v -0.306122 1.347239 0.517176
v -0.368636 1.069874 0.294826
v -0.470640 1.051968 0.163010
v 0.182497 2.086291 0.127867
v 0.343560 1.684382 0.205269
v -0.363978 0.916321 0.179968
v -0.529095 2.073562 0.186710
v -0.057353 0.963815 0.242623
v 0.063807 0.968851 0.159261
v 0.150424 0.969646 0.077571
v -0.456516 0.895117 0.106950
v -0.421886 0.805090 -0.147126
v -0.444174 0.835596 -0.057437
v -0.516968 0.962421 -0.161847
v -0.492445 0.985770 -0.030887
v -0.682267 1.185781 0.009786
v -0.726714 1.312157 0.095697
v -0.666284 1.442690 -0.164357
v -0.755522 1.423939 0.110399
v -0.736026 1.528144 0.029822
v -0.616008 1.161631 -0.297370
v -0.555804 0.994965 -0.285562
v -0.648787 1.169591 -0.182508
v -0.642196 1.156956 -0.105542
v -0.588751 1.664036 -0.455091
v -0.628260 1.531649 -0.365459
v -0.668624 1.505429 -0.179075
v -0.647351 1.406260 -0.284578
v -0.424825 0.814653 -0.254945
v 0.208838 1.546625 -0.434680
v 0.150468 1.677259 -0.516219
v 0.273062 1.522275 -0.256945
v 0.380105 1.548111 -0.062473
v 0.282505 1.459662 -0.242813
v 0.416258 1.444902 0.013503
v 0.389417 1.332122 0.003403
v 0.156197 0.997375 -0.084525
v 0.169602 1.007942 -0.345547
v 0.221089 1.176606 -0.366590
v 0.271981 1.186063 -0.258648
v 0.145685 0.974276 -0.216642
v 0.278572 1.173428 -0.181681
v 0.335985 1.203998 -0.074415
v 0.266313 1.422606 -0.360130
v 0.135444 0.906772 -0.085495
v 0.103496 0.858311 -0.176249
v 0.062289 0.833657 -0.291863
v -0.141406 0.794493 0.209809
v -0.054111 0.819634 0.209350
v 0.037060 0.829684 0.164644
v -0.228702 0.769355 0.210269
v -0.311742 0.729230 0.166479
v 0.130380 0.856523 0.051195
v -0.406298 0.701962 0.054018
v 0.136158 0.807836 -0.124029
v 0.080105 0.748386 -0.205694
v 0.063751 0.779078 -0.258637
v -0.387235 0.657103 -0.121275
v -0.343242 0.669667 -0.192335
v -0.345237 0.701496 -0.245939
vt 0.1051 0.9086
vt 0.1051 0.8863
vt 0.1202 0.8862
vt 0.1054 0.8751
vt 0.1325 0.8756
vt 0.1470 0.8568
vt 0.1689 0.8551
vt 0.1477 0.8387
vt 0.1750 0.8384
vt 0.1683 0.8356
vt 0.2067 0.8504
vt 0.2046 0.8437
vt 0.2207 0.8763
vt 0.2139 0.9026
vt 0.1847 0.8860
vt 0.1833 0.9140
vt 0.1621 0.8949
vt 0.1636 0.9272
vt 0.1454 0.9026
vt 0.1355 0.9348
vt 0.1248 0.9068
vt 0.1046 0.9350
vt 0.2139 0.9026
vt 0.2207 0.8763
vt 0.1847 0.8860
vt 0.1833 0.9140
vt 0.1621 0.8949
vt 0.1636 0.9272
vt 0.1454 0.9026
vt 0.1355 0.9348
vt 0.1248 0.9068
vt 0.1045 0.9582
vt 0.1295 0.9568
vt 0.1538 0.9524
vt 0.1757 0.9446
vt 0.2032 0.9403
vt 0.1202 0.8862
vt 0.1325 0.8756
vt 0.1470 0.8568
vt 0.1851 0.8441
vt 0.1750 0.8384
vt 0.1963 0.8645
vt 0.2067 0.8504
vt 0.1295 0.9568
vt 0.1538 0.9524
vt 0.1757 0.9446
vt 0.2032 0.9403
vt 0.1765 0.8775
vt 0.1572 0.8833
vt 0.1375 0.8845
vt 0.1054 0.8549
vt 0.1385 0.8375
vt 0.1052 0.8439
vt 0.1055 0.8385
vt 0.1385 0.8375
vt 0.1369 0.8335
vt 0.1765 0.8775
vt 0.1572 0.8833
vt 0.1375 0.8845
vt 0.1054 0.8643
vt 0.1477 0.8387
vt 0.1683 0.8356
vt 0.2046 0.8437
vt 0.1565 0.8691
vt 0.1963 0.8645
vt 0.1655 0.8318
vt 0.1565 0.8691
vt 0.1369 0.8335
vt 0.1655 0.8318
vt 0.2050 0.8136
vt 0.2050 0.8136
vt 0.1930 0.7989
vt 0.1748 0.8030
vt 0.2015 0.8207
vt 0.1732 0.8213
vt 0.1666 0.8550
vt 0.1539 0.8736
vt 0.1831 0.8925
vt 0.1516 0.8898
vt 0.1634 0.9024
vt 0.1227 0.9150
vt 0.1416 0.9149
vt 0.2505 0.8698
vt 0.2485 0.8253
vt 0.1944 0.8522
vt 0.1834 0.8499
vt 0.1668 0.9516
vt 0.1974 0.9394
vt 0.1844 0.9066
vt 0.2230 0.9119
vt 0.1057 0.8878
vt 0.1178 0.8707
vt 0.1757 0.8054
vt 0.1096 0.8421
vt 0.2447 0.7968
vt 0.1415 0.9578
vt 0.1974 0.9394
vt 0.1669 0.9513
vt 0.1414 0.9148
vt 0.1844 0.9066
vt 0.1634 0.9024
vt 0.1831 0.8925
vt 0.1516 0.8898
vt 0.1539 0.8736
vt 0.1057 0.8878
vt 0.1732 0.8213
vt 0.1178 0.8707
vt 0.2485 0.8253
vt 0.2505 0.8698
vt 0.1944 0.8522
vt 0.2015 0.8207
vt 0.1834 0.8499
vt 0.1666 0.8550
vt 0.2230 0.9119
vt 0.1227 0.9150
vt 0.1748 0.8030
vt 0.2018 0.8118
vt 0.2536 0.8097
vt 0.1757 0.8054
vt 0.1096 0.8421
vt 0.1412 0.9575
vt 0.1056 0.7938
vt 0.1308 0.7920
vt 0.1645 0.8055
vt 0.1308 0.7920
vt 0.1557 0.7926
vt 0.2088 0.7698
vt 0.2088 0.7698
vt 0.1155 0.7816
vt 0.2221 0.7657
vt 0.2038 0.7666
vt 0.2524 0.7781
vt 0.2830 0.7795
vt 0.1155 0.7816
vt 0.2221 0.7657
vt 0.2038 0.7666
vt 0.2038 0.7689
vt 0.2436 0.7652
vt 0.2742 0.7666
vn -0.0352 0.9760 -0.2147
vn -0.0111 0.9966 0.0811
vn 0.1835 0.9812 0.0604
vn 0.0319 0.8248 0.5645
vn 0.4134 0.7684 0.4885
vn 0.3797 0.3137 0.8703
vn 0.7069 0.2226 0.6714
vn 0.4879 -0.2866 0.8245
vn 0.7307 -0.2717 0.6263
vn 0.5977 -0.5500 0.5834
vn 0.8476 -0.3302 0.4153
vn 0.8409 -0.3929 0.3723
vn 0.9840 0.1748 0.0343
vn 0.9011 0.1197 -0.4168
vn 0.9153 0.3203 -0.2444
vn 0.7627 0.3585 -0.5383
vn 0.7798 0.5587 -0.2823
vn 0.5572 0.5126 -0.6532
vn 0.5317 0.7917 -0.3009
vn 0.2768 0.8588 -0.4311
vn 0.2064 0.9360 -0.2851
vn -0.0501 0.9114 -0.4084
vn -0.9602 0.0913 -0.2638
vn -0.9706 0.1398 0.1959
vn -0.9538 0.2868 -0.0898
vn -0.8530 0.3295 -0.4048
vn -0.8350 0.5298 -0.1488
vn -0.6748 0.4905 -0.5513
vn -0.6062 0.7668 -0.2112
vn -0.3741 0.8472 -0.3773
vn -0.2812 0.9274 -0.2466
vn -0.0832 0.3635 -0.9279
vn -0.0826 0.4001 -0.9127
vn 0.1497 0.3740 -0.9153
vn 0.2962 0.3520 -0.8879
vn 0.3949 0.3035 -0.8672
vn 0.5329 0.2894 -0.7951
vn 0.7413 0.1679 -0.6498
vn -0.2004 0.9753 0.0930
vn -0.3517 0.7538 0.5551
vn -0.3153 0.2854 0.9050
vn -0.6016 0.2555 0.7568
vn -0.5887 -0.2553 0.7670
vn -0.8528 0.0924 0.5140
vn -0.7619 -0.3616 0.5374
vn -0.3111 0.3658 -0.8772
vn -0.4503 0.3386 -0.8262
vn -0.5424 0.2867 -0.7897
vn -0.6662 0.2680 -0.6960
vn -0.8435 0.1395 -0.5187
vn 0.8996 0.4367 -0.0052
vn 0.7275 0.6830 -0.0656
vn 0.4771 0.8787 0.0142
vn 0.1075 -0.3082 0.9452
vn 0.3133 -0.5804 0.7517
vn 0.0771 -0.5859 0.8067
vn 0.0901 -0.4567 0.8850
vn -0.1556 -0.5758 0.8026
vn -0.2663 -0.4180 0.8685
vn -0.9032 0.4045 0.1438
vn -0.7613 0.6461 0.0546
vn -0.5054 0.8577 0.0949
vn 0.0531 0.6264 0.7777
vn 0.0169 0.0243 0.9996
vn -0.2669 -0.2835 0.9211
vn -0.4794 -0.5475 0.6859
vn -0.7666 -0.4122 0.4924
vn 0.7235 0.6176 0.3084
vn 0.9196 0.1227 0.3731
vn -0.5211 -0.3610 0.7734
vn -0.6879 0.5866 0.4274
vn 0.4145 -0.4118 0.8115
vn 0.6443 -0.3335 0.6882
vn 0.7095 -0.2251 0.6678
vn -0.5979 -0.3004 0.7432
vn -0.8909 -0.4255 -0.1589
vn -0.9432 -0.3319 0.0129
vn -0.8441 -0.5330 0.0593
vn -0.8209 -0.4820 0.3062
vn -0.8841 -0.4666 0.0275
vn -0.6454 -0.5119 0.5668
vn -0.9385 -0.1674 -0.3021
vn -0.9709 -0.1054 -0.2152
vn -0.9806 -0.0117 -0.1955
vn -0.9831 0.0564 -0.1741
vn -0.9402 -0.2286 -0.2525
vn -0.8717 -0.4900 -0.0014
vn -0.9559 -0.2828 -0.0787
vn -0.9408 -0.3222 -0.1053
vn -0.9052 0.0147 -0.4248
vn -0.9600 -0.0109 -0.2799
vn -0.9711 -0.0567 -0.2317
vn -0.9807 -0.0546 -0.1879
vn -0.7525 -0.1150 0.6484
vn -0.9682 -0.2391 0.0742
vn -0.8361 -0.5450 -0.0620
vn 0.9107 0.0880 -0.4035
vn 0.8221 0.0456 -0.5676
vn 0.9318 0.0574 -0.3585
vn 0.9328 0.1033 -0.3453
vn 0.9388 -0.0433 -0.3418
vn 0.9350 0.0226 -0.3539
vn 0.8814 -0.1349 -0.4526
vn 0.7545 -0.4819 0.4455
vn 0.8524 -0.0863 0.5157
vn 0.8906 -0.4257 0.1603
vn 0.8820 -0.4573 -0.1135
vn 0.8870 -0.2345 -0.3977
vn 0.9421 -0.2711 -0.1973
vn 0.8769 -0.4714 -0.0942
vn 0.9180 -0.3018 -0.2573
vn 0.8907 -0.4334 -0.1372
vn 0.9656 0.0437 -0.2563
vn 0.9851 -0.1428 -0.0958
vn 0.9287 -0.1580 -0.3354
vn 0.9163 -0.3233 -0.2363
vn 0.9875 -0.1578 -0.0028
vn 0.0924 -0.3036 0.9483
vn 0.2578 -0.2395 0.9360
vn 0.6290 -0.1634 0.7600
vn -0.1173 -0.2616 0.9580
vn -0.5224 -0.2513 0.8148
vn 0.7739 -0.2706 0.5726
vn -0.6722 -0.3531 0.6508
vn 0.9961 -0.0878 0.0046
vn 0.9468 0.0442 -0.3188
vn 0.8965 -0.1240 -0.4253
vn 0.8882 -0.2214 -0.4027
vn -0.9612 -0.2758 -0.0040
vn -0.9612 -0.2758 -0.0041
vn -0.9268 -0.2828 -0.2472
vn -0.8354 -0.4615 -0.2985
vn -0.7670 -0.5638 -0.3062
usemtl PAZ_HAIR
s 1
f 67/67/71 68/68/72 69/69/73
f 69/69/73 68/68/72 70/70/74
f 69/69/73 70/70/74 71/71/75
f 71/71/75 70/70/74 72/72/76
f 71/71/75 72/72/76 73/73/77
f 73/73/77 72/72/76 74/74/78
f 73/73/77 74/74/78 75/75/79
f 75/75/79 74/74/78 76/76/80
f 75/75/79 76/76/80 77/77/81
f 77/77/81 76/76/80 78/78/82
f 79/79/83 80/80/84 81/81/85
f 81/81/85 80/80/84 82/82/86
f 81/81/85 82/82/86 83/83/87
f 83/83/87 82/82/86 84/84/88
f 83/83/87 84/84/88 85/85/89
f 85/85/89 84/84/88 86/86/90
f 85/85/89 86/86/90 87/87/91
f 87/87/91 86/86/90 88/88/92
f 87/87/91 88/88/92 67/67/71
f 89/89/93 90/90/94 91/91/95
f 89/89/93 91/91/95 92/92/96
f 92/92/96 91/91/95 93/93/97
f 92/92/96 93/93/97 94/94/98
f 94/94/98 93/93/97 95/95/99
f 94/94/98 95/95/99 96/96/100
f 96/96/100 95/95/99 97/97/101
f 96/96/100 97/97/101 88/88/92
f 88/88/92 97/97/101 67/67/71
f 98/98/102 88/88/103 99/99/104
f 99/99/104 88/88/103 86/86/105
f 99/99/104 86/86/105 100/100/106
f 100/100/106 86/86/105 84/84/88
f 100/100/106 84/84/88 101/101/107
f 101/101/107 84/84/88 82/82/86
f 101/101/107 82/82/86 102/102/108
f 102/102/108 82/82/86 80/80/84
f 68/68/72 67/67/71 103/103/109
f 68/68/72 103/103/109 70/70/74
f 70/70/74 103/103/109 104/104/110
f 70/70/74 104/104/110 105/105/111
f 105/105/111 104/104/110 106/106/112
f 105/105/111 106/106/112 107/107/113
f 107/107/113 106/106/112 108/108/114
f 107/107/113 108/108/114 109/109/115
f 88/88/103 98/98/102 110/110/116
f 88/88/103 110/110/116 96/96/117
f 96/96/117 110/110/116 111/111/118
f 96/96/117 111/111/118 94/94/98
f 94/94/98 111/111/118 112/112/119
f 94/94/98 112/112/119 92/92/96
f 92/92/96 112/112/119 113/113/120
f 92/92/96 113/113/120 89/89/93
f 114/114/121 81/81/85 83/83/87
f 114/114/121 83/83/87 115/115/122
f 115/115/122 83/83/87 85/85/89
f 115/115/122 85/85/89 116/116/123
f 116/116/123 85/85/89 87/87/91
f 116/116/123 87/87/91 69/69/73
f 74/74/78 72/72/76 117/117/124
f 74/74/78 117/117/124 118/118/125
f 118/118/125 117/117/124 119/119/126
f 118/118/125 119/119/126 120/120/127
f 120/120/127 119/119/126 121/121/128
f 120/120/127 121/121/128 122/122/129
f 91/91/95 123/123/130 93/93/97
f 93/93/97 123/123/130 124/124/131
f 93/93/97 124/124/131 95/95/99
f 95/95/99 124/124/131 125/125/132
f 95/95/99 125/125/132 97/97/101
f 97/97/101 125/125/132 103/103/109
f 126/126/133 70/70/74 105/105/111
f 126/126/134 105/105/111 127/127/135
f 127/127/135 105/105/111 107/107/113
f 127/127/135 107/107/113 128/128/136
f 128/128/136 107/107/113 109/109/115
f 128/128/136 109/109/115 129/129/137
f 116/116/123 69/69/73 71/71/75
f 116/116/123 71/71/75 130/130/138
f 130/130/138 71/71/75 73/73/77
f 130/130/138 73/73/77 131/131/139
f 132/132/140 122/122/129 128/128/136
f 128/128/136 122/122/129 121/121/128
f 128/128/136 121/121/128 127/127/135
f 127/127/135 121/121/128 117/117/124
f 103/103/109 125/125/132 104/104/110
f 104/104/110 125/125/132 133/133/141
f 104/104/110 133/133/141 106/106/112
f 106/106/112 133/133/141 108/108/114
f 134/134/142 135/135/143 76/76/80
f 134/134/142 76/76/80 118/118/125
f 118/118/125 76/76/80 74/74/78
f 81/81/85 114/114/121 79/79/83
f 79/79/83 114/114/121 131/131/139
f 79/79/83 131/131/139 77/77/81
f 116/116/123 130/130/138 115/115/122
f 115/115/122 130/130/138 114/114/121
f 136/136/144 78/78/82 135/135/143
f 135/135/143 78/78/82 76/76/80
f 73/73/77 75/75/79 131/131/139
f 131/131/139 75/75/79 77/77/81
f 117/117/124 72/72/76 126/126/134
f 126/126/133 72/72/76 70/70/74
f 125/125/132 124/124/131 133/133/141
f 133/133/141 124/124/131 123/123/130
f 137/137/145 132/132/140 129/129/137
f 129/129/137 132/132/140 128/128/136
f 67/67/71 69/69/73 87/87/91
f 118/118/125 120/120/127 134/134/142
f 130/130/138 131/131/139 114/114/121
f 91/91/95 90/90/94 123/123/130
f 108/108/114 90/90/94 109/109/115
f 97/97/101 103/103/109 67/67/71
f 126/126/134 127/127/135 117/117/124
f 117/117/124 121/121/128 119/119/126
f 138/138/146 139/139/147 140/140/148
f 140/140/148 139/139/147 141/141/149
f 140/140/148 141/141/149 142/142/150
f 142/142/150 141/141/149 143/143/151
f 142/142/150 143/143/152 144/144/153
f 144/144/153 143/143/152 145/145/154
f 144/144/153 145/145/154 146/146/155
f 146/146/155 145/145/154 90/147/94
f 146/146/155 90/147/94 89/148/93
f 147/149/156 148/150/157 149/151/158
f 149/151/158 148/150/157 140/140/148
f 149/151/158 140/140/148 150/152/159
f 150/152/159 140/140/148 142/142/150
f 150/152/159 142/142/150 144/144/153
f 151/153/160 152/154/161 89/148/93
f 89/148/93 152/154/161 153/155/162
f 89/148/93 153/155/162 146/146/155
f 146/146/155 153/155/162 144/144/153
f 147/149/156 149/151/158 154/156/163
f 154/156/163 149/151/158 144/144/153
f 154/156/163 144/144/153 153/155/162
f 145/145/164 143/143/151 109/157/115
f 109/157/115 143/143/151 141/141/149
f 109/157/115 141/141/149 129/158/137
f 139/159/147 137/160/165 141/141/149
f 141/141/149 137/160/165 129/158/137
f 138/138/146 140/140/148 155/161/166
f 155/161/166 140/140/148 148/150/157
f 89/148/93 113/162/120 151/153/160
f 149/151/158 150/152/159 144/144/153
f 152/154/161 154/156/163 153/155/162
f 109/157/115 90/147/94 145/145/164
f 156/163/167 157/164/168 80/165/84
f 156/163/167 80/165/84 158/166/169
f 158/166/169 80/165/84 159/167/170
f 158/166/169 159/167/170 160/168/171
f 160/168/171 159/167/170 161/169/172
f 160/168/171 161/169/172 162/170/173
f 162/170/174 161/169/175 77/171/81
f 162/170/174 77/171/81 163/172/176
f 163/172/176 77/171/81 78/173/82
f 164/174/177 165/175/178 166/176/179
f 164/174/177 166/176/179 167/177/180
f 167/177/180 166/176/179 168/178/181
f 167/177/180 168/178/181 169/179/182
f 169/179/182 168/178/181 160/168/171
f 169/179/182 160/168/171 162/170/173
f 156/163/167 158/166/169 170/180/183
f 170/180/183 158/166/169 160/168/171
f 170/180/183 160/168/171 166/176/179
f 77/171/81 161/169/175 79/181/83
f 79/181/83 161/169/172 159/167/170
f 79/181/83 159/167/170 80/165/84
f 163/172/176 171/182/184 167/177/180
f 167/177/180 171/182/184 172/183/185
f 167/177/180 172/183/185 173/184/186
f 171/185/184 163/172/176 136/186/187
f 136/186/187 163/172/176 78/173/82
f 167/177/180 169/179/182 163/172/176
f 163/172/176 169/179/182 162/170/174
f 157/164/168 102/187/108 80/165/84
f 160/168/171 168/178/181 166/176/179
f 170/180/183 166/176/179 165/175/178
f 167/177/180 173/184/186 164/174/177
f 133/133/141 123/123/130 108/108/114
f 108/108/114 123/123/130 90/90/94
f 120/120/127 174/188/188 175/189/189
f 120/120/127 175/189/189 134/134/142
f 134/134/142 175/189/189 176/190/190
f 134/134/142 176/190/190 135/135/143
f 135/135/143 176/190/190 136/136/144
f 174/188/188 120/120/127 177/191/191
f 177/191/191 120/120/127 122/122/129
f 177/191/191 122/122/129 178/192/192
f 178/192/192 122/122/129 132/132/140
f 178/192/192 132/132/140 137/137/145
f 136/136/144 176/190/190 179/193/193
f 180/194/194 178/192/192 137/137/145
f 136/186/187 179/195/195 171/185/184
f 171/185/184 179/195/195 181/196/196
f 171/182/184 181/197/196 172/183/185
f 172/183/185 181/197/196 182/198/197
f 172/183/185 182/198/197 173/184/186
f 173/184/186 182/198/197 183/199/198
f 137/160/165 139/159/147 180/200/199
f 180/200/200 139/159/147 184/201/201
f 184/202/201 139/139/147 138/138/146
f 184/203/201 138/138/146 185/204/202
f 185/204/202 138/138/146 155/161/166
f 185/204/202 155/161/166 186/205/203
