# Blender v2.78 (sub 0) OBJ File: 'Paz.blend'
# www.blender.org
mtllib Uder Hair 2.mtl
o PAZ_HAIR_inv_face.001
v 0.113681 1.467410 0.453604
v 0.076367 1.032712 0.484122
v -0.132013 1.491052 0.534854
v -0.123728 1.056873 0.541098
v 0.176329 0.429704 -0.025515
v 0.096221 0.299944 0.044496
v 0.104360 0.443470 0.096055
v 0.081368 0.300926 0.168079
v 0.157258 0.325511 -0.171812
v 0.333929 1.382078 0.252748
v 0.355606 1.320641 0.047052
v 0.346167 0.980846 0.073881
v 0.259075 1.008510 0.282368
v 0.288439 0.643866 0.051169
v 0.197070 0.690235 0.200399
v 0.353033 1.015077 0.011787
v 0.368099 0.625279 -0.091331
v 0.296524 0.417787 -0.143419
v 0.309775 1.205049 -0.178322
v -0.131393 0.667215 0.364093
v 0.025323 0.668355 0.330262
v -0.130043 0.449513 0.333323
v -0.030220 0.429603 0.277560
v -0.011634 0.321855 0.311721
v -0.125050 0.334761 0.368874
v -0.393527 1.458258 0.495638
v -0.134105 1.483734 0.507830
v -0.295805 1.032743 0.514789
v -0.123157 1.056862 0.547864
v -0.456525 0.686315 0.246334
v -0.529372 0.989112 0.349024
v -0.608249 0.630157 0.136702
v -0.612209 0.964834 0.153570
v -0.681443 0.605809 0.005553
v -0.631641 0.996194 0.093096
v -0.639064 1.354006 0.330838
v -0.685533 1.294350 0.132874
v -0.658280 1.188115 -0.099258
v -0.530825 0.441443 -0.077823
v -0.486457 0.418639 0.029470
v -0.396230 0.435563 0.137426
v -0.235052 0.426616 0.294725
v -0.287353 0.664868 0.356440
v -0.131388 0.667109 0.364010
v -0.392888 0.291508 0.085160
v -0.353793 0.294824 0.204260
v -0.241764 0.319297 0.330871
v -0.125047 0.334713 0.368791
v -0.491924 0.313876 -0.118202
v -0.130028 0.449525 0.333392
vt 0.1450 0.8643
vt 0.1430 0.8349
vt 0.1060 0.8645
vt 0.1060 0.8356
vt 0.2053 0.7955
vt 0.2161 0.7714
vt 0.1637 0.7978
vt 0.1616 0.7714
vt 0.2621 0.7981
vt 0.1943 0.8655
vt 0.2334 0.8746
vt 0.2126 0.8321
vt 0.1832 0.8336
vt 0.2100 0.8219
vt 0.1740 0.8208
vt 0.2347 0.8317
vt 0.2463 0.8160
vt 0.2548 0.8063
vt 0.2591 0.9029
vt 0.1055 0.8206
vt 0.1350 0.8211
vt 0.1055 0.7992
vt 0.1279 0.7990
vt 0.1261 0.7714
vt 0.1055 0.7714
vt 0.1450 0.8643
vt 0.1060 0.8645
vt 0.1430 0.8349
vt 0.1060 0.8356
vt 0.1740 0.8208
vt 0.1832 0.8336
vt 0.2100 0.8219
vt 0.2126 0.8321
vt 0.2463 0.8160
vt 0.2347 0.8317
vt 0.1943 0.8655
vt 0.2334 0.8746
vt 0.2591 0.9029
vt 0.2548 0.8063
vt 0.2053 0.7955
vt 0.1637 0.7978
vt 0.1279 0.7990
vt 0.1350 0.8211
vt 0.1055 0.8206
vt 0.2161 0.7714
vt 0.1616 0.7714
vt 0.1261 0.7714
vt 0.1055 0.7714
vt 0.2621 0.7981
vt 0.1055 0.7992
vn -0.5859 0.0168 -0.8102
vn -0.4936 0.1843 -0.8499
vn -0.2966 -0.0292 -0.9545
vn -0.2304 0.2707 -0.9347
vn -0.7158 0.5000 -0.4874
vn -0.9220 0.2627 -0.2845
vn -0.8238 0.2922 -0.4857
vn -0.8996 -0.1289 -0.4173
vn -0.8782 0.4363 -0.1962
vn -0.8938 0.0842 -0.4404
vn -1.0000 0.0078 -0.0009
vn -0.9571 0.0918 -0.2750
vn -0.7921 0.1731 -0.5854
vn -0.7788 0.3757 -0.5022
vn -0.6789 0.3795 -0.6286
vn -1.0000 -0.0013 -0.0022
vn -0.8381 0.2885 -0.4631
vn -0.5325 0.5941 -0.6029
vn -0.4081 0.7679 -0.4937
vn -0.9782 -0.0156 0.2070
vn -0.2048 0.2750 -0.9394
vn -0.3791 0.3286 -0.8650
vn -0.4188 -0.0514 -0.9066
vn -0.6959 0.0475 -0.7166
vn -0.6116 -0.3135 -0.7264
vn -0.4572 -0.2813 -0.8437
vn 0.3911 0.0598 -0.9184
vn 0.1250 -0.0601 -0.9903
vn 0.3431 0.1913 -0.9196
vn 0.1225 0.2524 -0.9598
vn 0.5147 0.3859 -0.7656
vn 0.6683 0.2185 -0.7111
vn 0.5244 0.5208 -0.6736
vn 0.8958 0.0329 -0.4433
vn 0.9288 0.1105 -0.3537
vn 0.9113 -0.0060 -0.4118
vn 0.9795 0.1108 -0.1681
vn 0.8215 0.1932 -0.5364
vn 0.9702 0.1902 -0.1502
vn 0.9842 0.1731 0.0364
vn 0.8039 0.5388 -0.2521
vn 0.6781 0.6671 -0.3085
vn 0.7256 0.5951 -0.3454
vn 0.6789 0.1886 -0.7096
vn 0.4507 0.0449 -0.8915
vn 0.2664 0.3605 -0.8939
vn 0.1346 0.2775 -0.9512
vn 0.8377 0.4574 -0.2983
vn 0.8273 0.4840 -0.2850
vn 0.7626 -0.0752 -0.6425
vn 0.7708 -0.0684 -0.6335
vn 0.5993 -0.2322 -0.7661
vn 0.3572 -0.2884 -0.8884
vn 0.8485 0.3765 -0.3718
vn 0.3568 -0.0627 -0.9321
usemtl PAZ_HAIR
s 1
f 1/1/1 2/2/2 3/3/3
f 3/3/3 2/2/2 4/4/4
f 5/5/5 6/6/6 7/7/7
f 7/7/7 6/6/6 8/8/8
f 5/5/5 9/9/9 6/6/6
f 10/10/10 11/11/11 12/12/12
f 10/10/10 12/12/12 13/13/13
f 13/13/13 12/12/12 14/14/14
f 13/13/13 14/14/14 15/15/15
f 15/15/15 14/14/14 7/7/7
f 11/11/11 16/16/16 12/12/12
f 12/12/12 16/16/16 17/17/17
f 12/12/12 17/17/17 14/14/14
f 14/14/14 17/17/17 5/5/5
f 14/14/14 5/5/5 7/7/7
f 15/15/15 2/2/2 13/13/13
f 13/13/13 2/2/2 1/1/1
f 13/13/13 1/1/1 10/10/10
f 17/17/17 18/18/18 5/5/5
f 5/5/5 18/18/18 9/9/19
f 11/11/11 19/19/20 16/16/16
f 20/20/21 4/4/4 21/21/22
f 20/20/21 21/21/22 22/22/23
f 22/22/23 21/21/22 23/23/24
f 22/22/23 23/23/24 24/24/25
f 24/24/25 23/23/24 8/8/8
f 21/21/22 2/2/2 15/15/15
f 21/21/22 15/15/15 23/23/24
f 23/23/24 15/15/15 7/7/7
f 23/23/24 7/7/7 8/8/8
f 22/22/23 24/24/25 25/25/26
f 21/21/22 4/4/4 2/2/2
f 26/26/27 27/27/28 28/28/29
f 28/28/29 27/27/28 29/29/30
f 28/28/29 30/30/31 31/31/32
f 31/31/32 30/30/31 32/32/33
f 31/31/32 32/32/34 33/33/35
f 33/33/35 32/32/34 34/34/36
f 33/33/35 34/34/36 35/35/37
f 26/26/27 28/28/29 31/31/32
f 26/26/27 31/31/32 36/36/38
f 36/36/38 31/31/32 33/33/35
f 36/36/38 33/33/35 37/37/39
f 33/33/35 35/35/37 37/37/39
f 37/37/39 35/35/37 38/38/40
f 39/39/41 34/34/42 40/40/43
f 40/40/43 34/34/42 32/32/33
f 40/40/43 32/32/33 41/41/44
f 41/41/44 32/32/33 30/30/31
f 41/41/44 30/30/31 42/42/45
f 42/42/45 30/30/31 43/43/46
f 42/42/45 43/43/46 44/44/47
f 45/45/48 40/40/43 46/46/49
f 46/46/50 40/40/51 41/41/44
f 46/46/50 41/41/44 47/47/52
f 47/47/52 41/41/44 42/42/45
f 47/47/52 42/42/45 48/48/53
f 29/29/30 44/44/47 43/43/46
f 29/29/30 43/43/46 28/28/29
f 28/28/29 43/43/46 30/30/31
f 40/40/43 45/45/48 39/39/41
f 39/39/41 45/45/48 49/49/54
f 44/44/47 50/50/55 42/42/45
f 42/42/45 50/50/55 48/48/53
